<svg width="276" height="217" viewBox="0 0 276 217" fill="none" xmlns="http://www.w3.org/2000/svg">
<path d="M256.167 159.233C254.101 171.553 249.288 181.489 242.484 189.176C240.218 191.741 237.728 194.054 235.044 196.123C232.965 197.724 230.772 199.179 228.473 200.485C226.777 201.458 225.024 202.344 223.223 203.155C207.873 210.06 188.838 211.325 169.347 207.53C167.443 207.159 165.54 206.841 163.634 206.564C145.826 203.984 127.89 205.252 110.924 205.427C98.1851 205.563 85.9912 205.08 74.8142 201.89C70.6316 200.702 66.5925 199.129 62.7223 197.069C61.6384 196.494 60.5673 195.878 59.5089 195.223C58.3803 194.524 57.2709 193.781 56.1743 192.986C55.0872 192.198 54.0224 191.391 52.9831 190.562C40.6203 180.724 31.7099 168.178 26.5518 154.374C23.6381 146.589 21.9197 138.4 21.4511 130.075C20.8837 120.084 22.1174 109.893 25.2416 99.9503C35.969 65.8062 68.1323 36.9021 68.1323 36.9021C145.309 -26.7562 201.481 26.0822 217.564 68.1513C233.651 110.217 263.2 117.275 256.167 159.233Z" fill="white"/>
<path d="M190.365 209.774C183.555 209.774 176.485 209.085 169.318 207.69C167.482 207.33 165.617 207.016 163.612 206.724C149.693 204.706 135.685 205.043 122.136 205.37C118.442 205.459 114.622 205.551 110.928 205.589C99.0429 205.716 86.4377 205.376 74.773 202.046C70.4438 200.816 66.3664 199.189 62.6492 197.213C61.5781 196.644 60.4942 196.021 59.4262 195.36C58.2945 194.658 57.1692 193.905 56.0821 193.117C54.9727 192.313 53.8951 191.496 52.8845 190.689C40.8437 181.105 31.6847 168.569 26.4022 154.432C23.4821 146.627 21.7606 138.435 21.292 130.084C20.7149 119.916 21.9933 109.76 25.0888 99.903C30.639 82.2415 42.0168 66.0194 50.586 55.5204C59.8693 44.1475 67.9444 36.8548 68.0241 36.7817C84.1488 23.48 100.27 14.5539 115.942 10.245C129.877 6.41268 143.521 6.19978 156.499 9.60942C170.571 13.305 183.973 21.4145 195.252 33.0575C204.908 43.0258 212.885 55.4664 217.714 68.0913C223.937 84.3673 232.226 95.4574 239.539 105.245C251.331 121.022 260.643 133.485 256.324 159.256C254.331 171.143 249.715 181.242 242.603 189.278C240.365 191.808 237.856 194.153 235.14 196.244C233.068 197.839 230.852 199.31 228.55 200.619C226.896 201.569 225.123 202.469 223.287 203.295C213.752 207.585 202.466 209.768 190.362 209.768L190.365 209.774ZM137.579 204.804C146.215 204.804 154.953 205.147 163.659 206.409C165.668 206.701 167.539 207.016 169.379 207.375C189.217 211.236 208.316 209.685 223.159 203.012C224.986 202.189 226.749 201.293 228.397 200.349C230.686 199.049 232.889 197.585 234.948 195.999C237.649 193.918 240.145 191.588 242.367 189.075C249.438 181.086 254.028 171.038 256.011 159.211C260.309 133.574 251.032 121.158 239.284 105.442C231.958 95.6385 223.657 84.5294 217.418 68.212C209.132 46.5403 188.184 18.2686 156.42 9.92401C128.579 2.60901 98.909 11.7289 68.2377 37.0295C67.9221 37.3155 35.9884 66.2927 25.398 100.001C22.3121 109.824 21.0401 119.938 21.6139 130.069C22.0826 138.388 23.7945 146.548 26.7051 154.321C31.9684 168.404 41.0891 180.892 53.0854 190.438C54.0928 191.242 55.1639 192.055 56.2701 192.859C57.3509 193.641 58.4698 194.391 59.5952 195.09C60.6568 195.748 61.7343 196.368 62.7991 196.93C66.4971 198.897 70.5522 200.514 74.8591 201.738C86.4855 205.055 99.062 205.395 110.924 205.268C114.616 205.23 118.435 205.138 122.13 205.049C127.224 204.925 132.382 204.801 137.579 204.801V204.804Z" fill="#002346"/>
<path d="M186.639 157.832L197.978 166.577C197.978 166.577 200.443 168.446 203.006 168.249C203.006 168.249 208.527 173.555 211.584 179.844L217.6 174.537C217.6 174.537 211.291 166.183 210.599 163.136C210.599 163.136 211.094 161.267 210.204 159.402C210.204 159.402 211.486 153.113 209.611 150.066C209.611 150.066 208.231 146.92 207.737 145.153L202.808 134.934C202.808 134.934 200.443 134.54 200.443 138.178C200.443 138.178 200.64 141.324 202.709 144.27C202.709 144.27 204.386 148.496 202.116 148.693L198.37 146.434C198.37 146.434 195.708 145.058 192.552 143.879C192.552 143.879 191.37 143.288 189.89 142.109C189.89 142.109 179.342 132.084 177.269 135.525C177.269 135.525 176.775 136.507 179.144 137.587C179.144 137.587 176.482 138.963 180.623 141.814L180.327 146.434C180.327 146.434 180.425 148.595 181.806 150.463C181.806 150.463 180.623 153.708 186.636 157.835L186.639 157.832Z" fill="#F2B3C1"/>
<path d="M211.53 180.104L211.438 179.917C208.585 174.044 203.503 168.966 202.942 168.414C200.373 168.569 197.979 166.783 197.876 166.707L186.54 157.962C180.955 154.127 181.478 151.044 181.628 150.491C180.279 148.623 180.171 146.529 180.164 146.44L180.454 141.893C178.86 140.781 178.083 139.745 178.143 138.814C178.181 138.21 178.561 137.816 178.822 137.609C177.888 137.145 177.321 136.643 177.132 136.109C176.999 135.728 177.113 135.477 177.129 135.452C177.4 135 177.808 134.737 178.344 134.667C181.765 134.209 189.668 141.673 190.002 141.994C191.44 143.138 192.613 143.729 192.626 143.736C195.737 144.899 198.418 146.278 198.444 146.291L202.155 148.528C202.502 148.486 202.751 148.337 202.913 148.073C203.567 147.018 202.655 144.571 202.566 144.343C200.503 141.397 200.283 138.216 200.28 138.184C200.28 136.786 200.615 135.801 201.278 135.239C201.986 134.641 202.795 134.768 202.831 134.772L202.913 134.784L207.88 145.08C208.374 146.844 209.742 149.967 209.755 149.999C211.559 152.932 210.494 158.725 210.367 159.379C211.18 161.134 210.826 162.849 210.759 163.135C211.476 166.145 217.661 174.356 217.721 174.438L217.811 174.556L211.527 180.098L211.53 180.104ZM203.063 168.086L203.114 168.137C203.168 168.191 208.582 173.428 211.632 179.589L217.38 174.518C216.583 173.453 211.094 166.059 210.44 163.174L210.431 163.135L210.44 163.097C210.443 163.078 210.906 161.261 210.054 159.472L210.032 159.424L210.042 159.373C210.054 159.31 211.288 153.11 209.471 150.151C209.446 150.101 208.072 146.958 207.581 145.197L202.7 135.083C202.502 135.07 201.957 135.083 201.479 135.49C200.892 135.989 200.596 136.891 200.596 138.178C200.596 138.2 200.816 141.305 202.834 144.181L202.853 144.212C202.898 144.327 203.946 147.006 203.181 148.242C202.955 148.604 202.601 148.81 202.129 148.852H202.078L198.288 146.57C198.272 146.561 195.607 145.191 192.498 144.028C192.435 143.996 191.268 143.412 189.792 142.236C189.699 142.15 181.656 134.549 178.385 134.984C177.942 135.045 177.623 135.248 177.407 135.607C177.407 135.607 177.056 136.462 179.211 137.444L179.508 137.577L179.221 137.727C179.221 137.727 178.51 138.105 178.465 138.836C178.414 139.649 179.195 140.634 180.716 141.683L180.789 141.734L180.486 146.443C180.486 146.443 180.601 148.563 181.934 150.368L181.985 150.437L181.956 150.517C181.946 150.549 180.907 153.707 186.728 157.702L186.735 157.708L198.074 166.453C198.096 166.472 200.526 168.28 202.993 168.089L203.063 168.083V168.086Z" fill="#002346"/>
<path d="M192.259 153.862C192.211 153.862 192.167 153.843 192.135 153.802C190.7 151.991 186.722 150.427 186.68 150.412C186.629 150.392 186.591 150.345 186.582 150.291C186.11 147.568 184.344 146.983 184.324 146.976C184.254 146.954 184.21 146.891 184.213 146.818C184.465 141.543 181.86 140.745 181.006 140.481C180.948 140.462 180.901 140.45 180.862 140.437C180.815 140.685 180.783 141.295 180.783 141.816C180.783 141.905 180.713 141.975 180.623 141.975C180.534 141.975 180.464 141.905 180.464 141.816C180.464 140.189 180.623 140.122 180.719 140.084C180.792 140.056 180.872 140.071 180.932 140.132C180.939 140.132 181.022 140.157 181.098 140.179C183.524 140.926 184.678 143.125 184.535 146.719C184.962 146.9 186.422 147.688 186.878 150.151C187.481 150.392 190.994 151.854 192.384 153.608C192.438 153.678 192.425 153.777 192.358 153.831C192.329 153.853 192.294 153.866 192.259 153.866V153.862Z" fill="#002346"/>
<path d="M192.062 157.202C192.062 157.202 192.042 157.202 192.033 157.202C189.237 156.688 187.484 155.458 187.315 155.293C185.95 153.933 184.452 151.753 184.436 151.731C184.423 151.711 184.414 151.686 184.41 151.661C184.085 149.204 182.973 148.2 182.338 147.819C182.262 147.774 182.169 147.771 182.09 147.816C182.013 147.86 181.965 147.94 181.965 148.029V150.459C181.965 150.548 181.895 150.618 181.806 150.618C181.717 150.618 181.646 150.548 181.646 150.459V148.029C181.646 147.822 181.755 147.641 181.933 147.539C182.112 147.437 182.326 147.441 182.501 147.546C183.18 147.952 184.369 149.02 184.72 151.578C184.908 151.848 186.285 153.812 187.538 155.064C187.688 155.213 189.412 156.392 192.087 156.888C192.173 156.904 192.23 156.986 192.215 157.072C192.202 157.148 192.135 157.202 192.058 157.202H192.062Z" fill="#002346"/>
<path d="M193.541 150.618C193.468 150.618 193.404 150.567 193.385 150.494C193.107 149.3 191.89 148.537 191.88 148.531L188.564 146.684C187.943 146.338 187.398 145.852 186.99 145.273L184.245 141.409C182.329 138.546 179.144 137.746 179.112 137.736C179.026 137.714 178.975 137.628 178.994 137.545C179.017 137.46 179.099 137.409 179.186 137.428C179.319 137.46 182.523 138.264 184.506 141.228L187.248 145.089C187.63 145.629 188.14 146.084 188.717 146.408L192.039 148.257C192.1 148.295 193.388 149.096 193.694 150.424C193.713 150.51 193.659 150.596 193.576 150.615C193.563 150.615 193.55 150.618 193.541 150.618Z" fill="#002346"/>
<path d="M194.822 157.892C194.745 157.892 194.675 157.835 194.666 157.756C194.656 157.692 193.818 151.426 198.498 149.043C198.577 149.001 198.673 149.033 198.711 149.112C198.753 149.192 198.721 149.287 198.641 149.325C194.165 151.604 194.972 157.651 194.981 157.711C194.994 157.797 194.933 157.88 194.847 157.892C194.841 157.892 194.831 157.892 194.825 157.892H194.822Z" fill="#002346"/>
<path d="M198.172 156.614C198.09 156.614 198.019 156.551 198.013 156.468C197.516 150.723 202.004 148.568 202.049 148.546C202.129 148.508 202.224 148.546 202.259 148.622C202.294 148.699 202.259 148.797 202.183 148.835C202.138 148.854 197.854 150.923 198.332 156.443C198.338 156.532 198.274 156.608 198.185 156.614C198.182 156.614 198.176 156.614 198.172 156.614Z" fill="#002346"/>
<path d="M205.387 160.492C202.378 160.492 199.783 158.277 199.744 158.245C199.677 158.188 199.671 158.086 199.728 158.02C199.786 157.953 199.888 157.947 199.955 158.004C200.172 158.191 205.314 162.57 209.398 158.404C209.458 158.341 209.56 158.341 209.624 158.404C209.688 158.465 209.688 158.566 209.624 158.63C208.263 160.015 206.78 160.492 205.387 160.492Z" fill="#002346"/>
<path d="M203.006 168.407C202.929 168.407 202.862 168.353 202.849 168.274C202.837 168.188 202.894 168.105 202.98 168.092C203.076 168.077 205.304 167.682 205.212 165.01C205.212 164.921 205.279 164.848 205.365 164.845C205.451 164.842 205.527 164.912 205.531 164.997C205.633 167.953 203.057 168.397 203.031 168.404C203.022 168.404 203.015 168.404 203.006 168.404V168.407Z" fill="#002346"/>
<path d="M209.907 179.256L214.935 185.84L223.51 178.862L218.384 173.161L209.907 179.256Z" fill="white"/>
<path d="M214.906 186.066L209.678 179.221L218.406 172.948L223.74 178.878L214.906 186.066ZM210.13 179.288L214.96 185.611L223.281 178.843L218.362 173.374L210.13 179.288Z" fill="#002346"/>
<path d="M228.929 186.307L235.044 196.123C232.965 197.725 230.772 199.18 228.473 200.486C226.777 201.458 225.024 202.345 223.223 203.155L212.565 184.757L223.312 177.289L228.929 186.307Z" fill="#8A8A8A"/>
<path d="M223.159 203.362L212.355 184.712L223.36 177.066L235.258 196.164L235.143 196.253C233.071 197.848 230.855 199.32 228.553 200.629C226.899 201.579 225.126 202.478 223.29 203.304L223.159 203.365V203.362ZM212.779 184.807L223.29 202.955C225.072 202.148 226.787 201.274 228.394 200.352C230.642 199.075 232.806 197.642 234.834 196.088L223.268 177.518L212.779 184.807Z" fill="#002346"/>
<path d="M59.4074 176.812L60.147 164.632L57.6476 151.806L58.0238 151.387C58.0238 151.387 58.8495 149.776 58.3872 146.087L57.128 136.973C57.0579 136.468 57.5329 136.055 58.0238 136.198C59.5158 136.624 62.1713 138.139 62.8281 143.503L63.1979 147.933C63.1979 147.933 63.4752 150.609 65.4199 149.411L78.3693 137.167C78.3693 137.167 79.5839 136.862 80.6933 134.739C80.6933 134.739 81.8952 131.879 83.0078 131.695C83.0078 131.695 85.0449 129.664 86.1543 131.511C86.1543 131.787 85.692 134.831 85.692 134.831C85.692 134.831 87.8216 134.555 87.4518 136.77L86.0618 142.397C86.7186 142.448 87.1999 143.033 87.1202 143.684L86.2499 150.793C86.2499 150.793 83.9355 160.297 81.3437 160.942L67.2721 181.241L59.4042 176.812H59.4074Z" fill="#F2B3C1"/>
<path d="M67.3263 181.451L59.2449 176.901L59.9909 164.642L57.4819 151.759L57.8964 151.298C57.9793 151.117 58.6615 149.497 58.2375 146.106L56.9783 136.996C56.9368 136.703 57.0484 136.414 57.2715 136.22C57.4947 136.03 57.7944 135.96 58.0781 136.042C59.6306 136.487 62.3308 138.044 62.9971 143.481L63.3669 147.917C63.3669 147.917 63.504 149.154 64.1703 149.478C64.4795 149.627 64.8684 149.56 65.3307 149.281L78.2961 137.021L78.3375 137.012C78.3375 137.012 79.5011 136.684 80.5595 134.663C80.6775 134.377 81.7901 131.807 82.9377 131.546C83.1418 131.355 84.1396 130.466 85.1279 130.586C85.606 130.644 85.9982 130.926 86.301 131.428L86.3233 131.467V131.511C86.3233 131.759 85.995 133.952 85.8866 134.663C86.2086 134.657 86.8366 134.714 87.2574 135.146C87.6176 135.518 87.7388 136.074 87.6176 136.796L86.2691 142.268C86.5561 142.331 86.8111 142.487 86.9992 142.716C87.2287 142.995 87.3307 143.345 87.2861 143.704L86.4158 150.812C86.317 151.219 84.079 160.298 81.449 161.079L67.3295 181.451H67.3263ZM59.5764 176.723L67.2307 181.032L81.2513 160.803L81.3087 160.787C83.7794 160.171 86.0747 150.847 86.097 150.755L86.9641 143.663C86.996 143.392 86.9195 143.125 86.7473 142.913C86.5752 142.7 86.3265 142.573 86.0555 142.554L85.8675 142.538L87.302 136.729C87.4041 136.122 87.3116 135.661 87.0279 135.366C86.5656 134.886 85.7272 134.987 85.7208 134.987L85.5104 135.013L85.5423 134.806C85.7176 133.647 85.9758 131.889 86.0013 131.549C85.7591 131.162 85.4498 130.945 85.0896 130.901C84.1651 130.787 83.1386 131.794 83.129 131.807L83.0939 131.842L83.0429 131.851C82.2045 131.991 81.1748 134.028 80.8496 134.8C79.8167 136.773 78.6946 137.231 78.4587 137.307L65.5124 149.544C64.9449 149.894 64.4444 149.97 64.03 149.767C63.2043 149.363 63.0545 148.006 63.0481 147.949L62.6783 143.516C62.0343 138.267 59.4649 136.773 57.9888 136.351C57.8071 136.3 57.6222 136.341 57.4788 136.462C57.3385 136.583 57.2684 136.767 57.2939 136.951L58.5531 146.065C59.0185 149.764 58.2088 151.394 58.1737 151.461L58.1514 151.495L57.8262 151.855L60.3128 164.622L59.5764 176.723Z" fill="#002346"/>
<path d="M80.3584 137.818C80.3202 137.818 80.2851 137.806 80.2532 137.78C80.1863 137.723 80.1799 137.621 80.2373 137.555C80.7952 136.913 81.2797 135.349 81.2861 135.333C82.0257 132.849 82.845 131.647 82.8801 131.6C82.9311 131.527 83.0299 131.511 83.1032 131.558C83.1766 131.609 83.1925 131.708 83.1447 131.781C83.1351 131.794 82.3158 132.995 81.5921 135.426C81.5698 135.492 81.0821 137.068 80.4796 137.761C80.4477 137.796 80.403 137.815 80.3584 137.815V137.818Z" fill="#002346"/>
<path d="M81.1622 143.478C81.1399 143.478 81.1175 143.475 81.0952 143.465C81.0155 143.43 80.9805 143.335 81.0155 143.256L83.4224 137.997C84.7008 134.533 85.5839 134.628 85.7464 134.682C85.8293 134.711 85.874 134.8 85.8485 134.882C85.823 134.962 85.7369 135.006 85.6572 134.987C85.6189 134.987 84.8761 134.981 83.7157 138.117L81.3056 143.389C81.2801 143.446 81.2196 143.481 81.159 143.481L81.1622 143.478Z" fill="#002346"/>
<path d="M81.9944 151.781C81.9689 151.781 81.9466 151.775 81.9243 151.765C81.8446 151.727 81.8127 151.632 81.8541 151.552C82.5714 150.123 82.7627 145.572 82.7627 145.528C83.4322 142.467 86.0303 142.239 86.059 142.239C86.1483 142.232 86.2216 142.299 86.2312 142.385C86.2376 142.471 86.1706 142.547 86.0845 142.556C85.9857 142.563 83.6936 142.773 83.0815 145.569C83.0783 145.731 82.8902 150.205 82.1442 151.695C82.1155 151.753 82.0613 151.784 82.0008 151.784L81.9944 151.781Z" fill="#002346"/>
<path d="M167.472 161.359C167.472 161.359 168.674 163.358 167.029 164.804L167.472 161.359Z" fill="#E6E7E8"/>
<path d="M168.371 159.863C168.371 159.863 166.066 156.367 161.256 156.567L161.345 156.383C161.38 155.411 161.45 154.375 161.559 153.272L162.486 140.323C162.917 141.156 167.979 151.08 168.171 155.671L168.371 159.866V159.863Z" fill="#424242"/>
<path d="M168.56 160.435L168.241 159.952C168.218 159.917 165.926 156.533 161.266 156.727L161.001 156.736L161.189 156.345C161.227 155.338 161.297 154.299 161.399 153.257L162.369 139.745L162.63 140.25C163.194 141.343 168.142 151.07 168.333 155.662L168.56 160.435ZM161.648 156.402C165.257 156.402 167.422 158.477 168.19 159.374L168.014 155.678C167.842 151.601 163.708 143.104 162.605 140.908L161.718 153.285C161.616 154.337 161.543 155.382 161.505 156.393V156.406C161.552 156.406 161.6 156.406 161.648 156.406V156.402Z" fill="#002346"/>
<path d="M167.473 161.359L166.236 172.579L160.96 167.45L160.357 159.859L161.301 158.365C161.301 158.365 165.468 157.962 167.473 161.359Z" fill="#F2B3C1"/>
<path d="M166.361 172.923L160.807 167.524L160.198 159.821L161.209 158.217L161.285 158.21C161.33 158.207 165.58 157.838 167.61 161.28L167.636 161.324L166.357 172.923H166.361ZM161.113 167.381L166.115 172.24L167.311 161.394C165.519 158.42 161.961 158.487 161.394 158.518L160.523 159.901L161.116 167.381H161.113Z" fill="#002346"/>
<path d="M161.3 158.367C161.3 158.367 165.368 158.662 167.874 162.758L168.374 159.86C168.374 159.86 165.869 155.964 161.259 156.565L161.3 158.367Z" fill="white"/>
<path d="M167.957 163.203L167.737 162.84C165.302 158.862 161.329 158.528 161.288 158.525L161.145 158.516L161.097 156.428L161.24 156.409C165.891 155.805 168.483 159.736 168.509 159.777L168.541 159.828L167.957 163.203ZM161.457 158.226C162.19 158.325 165.531 158.954 167.785 162.329L168.206 159.901C167.897 159.459 165.506 156.259 161.422 156.711L161.457 158.23V158.226Z" fill="#002346"/>
<path d="M164.967 179.637L163.634 206.565C145.826 203.984 127.891 205.252 110.925 205.427C109.21 192.361 108.853 177.638 108.853 177.638L142.32 176.641L164.967 179.637Z" fill="#8A8A8A"/>
<path d="M163.784 206.749L163.612 206.723C149.693 204.706 135.685 205.042 122.137 205.37C118.442 205.459 114.623 205.551 110.928 205.589H110.788L110.768 205.449C109.072 192.522 108.699 177.791 108.696 177.644V177.486L108.849 177.479L142.316 176.481L165.136 179.5L163.787 206.749H163.784ZM137.576 204.804C146.155 204.804 154.835 205.141 163.484 206.383L164.801 179.777L142.3 176.799L109.018 177.794C109.063 179.414 109.481 193.113 111.068 205.268C114.715 205.23 118.486 205.138 122.13 205.052C127.225 204.928 132.383 204.804 137.579 204.804H137.576Z" fill="#002346"/>
<path d="M129.47 86.6713C129.47 86.6713 120.062 92.264 114.139 82.4768C114.139 82.4768 112.047 78.4824 112.398 74.4849C112.398 74.4849 107.498 70.9831 110.135 65.3078C110.565 64.3831 111.142 63.5569 111.805 62.8388C112.956 61.5963 115.65 58.3837 117.052 54.2273C117.135 53.9794 117.205 53.7284 117.269 53.4742C117.716 51.6978 120.056 43.509 125.029 44.2208C125.029 44.2208 129.036 38.2277 144.016 40.2264C144.016 40.2264 152.33 41.1098 155.496 52.1681C155.751 53.0579 155.949 53.9635 156.076 54.8787C156.204 55.7939 156.688 57.7068 158.649 59.2035C158.649 59.2035 161.435 60.5731 162.143 64.2401C162.391 65.5302 162.251 66.8903 161.649 68.0152C161.304 68.6539 160.794 69.2767 160.042 69.5913C160.042 69.5913 166.488 80.1793 156.382 86.5696C156.382 86.5696 149.761 91.3647 144.188 85.969L129.466 86.6681L129.47 86.6713Z" fill="#002346"/>
<path d="M124.184 88.0508C124.184 88.0508 125.22 88.2065 126.205 88.3272L124.585 89.449L124.184 88.0508Z" fill="#424242"/>
<g opacity="0.2">
<path d="M124.184 88.0508C124.184 88.0508 125.22 88.2065 126.205 88.3272L124.585 89.449L124.184 88.0508Z" fill="black"/>
</g>
<path d="M162.161 166.056C162.161 166.056 161.112 162.618 161.348 156.383C161.383 155.411 161.453 154.375 161.562 153.272L162.49 140.323L162.965 133.698C162.965 133.698 165.569 122.713 162.164 116.92C162.164 116.92 166.172 97.9426 155.151 92.5501L149.54 89.5536L124.69 88.953L124.189 88.0537L114.068 92.9473C114.068 92.9473 104.348 97.0433 102.645 107.329C102.645 107.329 99.3235 121.734 97.6976 147.276C97.6243 148.449 97.9144 149.624 98.5647 150.606C100.117 152.942 104.45 156.593 115.47 159.466C115.47 159.466 114.068 163.26 111.463 168.055C111.463 168.055 108.457 174.048 108.256 177.642C108.256 177.642 126.692 188.03 146.132 186.431L147.937 180.238L148.938 186.031C148.938 186.031 159.56 185.831 165.77 179.637L162.161 166.053V166.056ZM113.864 144.082C113.864 144.082 114.265 142.884 113.462 141.887L116.067 132.697L117.268 145.08L113.861 144.082H113.864Z" fill="#424242"/>
<path d="M142.03 186.755C124.324 186.755 108.346 177.877 108.174 177.782L108.088 177.734L108.094 177.635C108.295 174.048 111.193 168.23 111.317 167.985C113.587 163.806 114.958 160.352 115.254 159.574C103.739 156.545 99.7702 152.713 98.4281 150.692C97.7745 149.707 97.4558 148.49 97.5355 147.263C99.1454 122.001 102.454 107.434 102.486 107.291C104.182 97.0465 113.906 92.8393 114.001 92.798L124.25 87.8408L124.78 88.791L149.576 89.3883L155.221 92.404C165.911 97.6344 162.563 115.696 162.327 116.888C165.681 122.684 163.143 133.622 163.115 133.733L161.715 153.285C161.613 154.337 161.54 155.382 161.502 156.393C161.269 162.522 162.299 165.98 162.308 166.012V166.018L165.939 179.688L165.876 179.752C159.688 185.92 149.04 186.19 148.932 186.19H148.795L147.886 180.943L146.244 186.581L146.136 186.59C144.759 186.705 143.388 186.755 142.026 186.755H142.03ZM108.416 177.553C109.812 178.315 127.556 187.756 146.005 186.282L147.972 179.533L149.069 185.869C150.322 185.815 159.869 185.23 165.592 179.593L162.009 166.101C161.97 165.977 160.957 162.484 161.189 156.38C161.228 155.363 161.298 154.311 161.403 153.26L162.806 133.688C162.834 133.555 165.359 122.671 162.025 116.999L161.993 116.945L162.005 116.885C162.044 116.697 165.86 97.9681 155.078 92.6899L149.496 89.7093L124.592 89.1087L124.12 88.2603L114.135 93.0872C114.03 93.1316 104.469 97.2721 102.799 107.352C102.764 107.504 99.461 122.048 97.8511 147.282C97.7777 148.439 98.0774 149.586 98.6927 150.514C100.016 152.506 103.959 156.297 115.506 159.307L115.675 159.351L115.614 159.516C115.602 159.555 114.177 163.377 111.598 168.128C111.569 168.182 108.661 174.016 108.416 177.55V177.553ZM117.451 145.303L113.66 144.19L113.711 144.035C113.711 144.035 114.071 142.904 113.338 141.985L113.287 141.922L116.147 131.842L117.454 145.303H117.451ZM114.055 143.978L117.087 144.867L115.99 133.558L113.638 141.858C114.259 142.687 114.138 143.615 114.059 143.981L114.055 143.978Z" fill="#002346"/>
<path d="M147.933 180.397C147.933 180.397 147.902 180.397 147.889 180.391C147.806 180.365 147.758 180.276 147.784 180.194C147.816 180.089 150.965 169.507 149.582 158.287L149.98 144.08L150.783 136.278C150.812 136.151 153.299 125.557 146.591 111.794C146.553 111.715 146.585 111.62 146.665 111.582C146.744 111.543 146.84 111.575 146.878 111.655C153.64 125.528 151.125 136.224 151.099 136.332L150.302 144.102L149.9 158.274C151.29 169.539 148.122 180.184 148.09 180.289C148.067 180.359 148.007 180.404 147.937 180.404L147.933 180.397Z" fill="#002346"/>
<path d="M134.105 99.1377C134.105 99.1377 143.924 106.929 146.729 111.721C146.729 111.721 148.932 104.53 148.932 98.3369C148.932 98.3369 144.724 101.133 134.102 99.1345L134.105 99.1377Z" fill="white"/>
<path d="M146.777 112.115L146.592 111.8C143.834 107.088 134.101 99.3375 134.006 99.2612L133.502 98.8609L134.133 98.9784C144.548 100.936 148.804 98.2317 148.846 98.2031L149.094 98.041V98.3365C149.094 104.482 146.904 111.695 146.882 111.765L146.777 112.112V112.115ZM134.691 99.4042C136.661 101.009 144.064 107.177 146.681 111.33C147.105 109.852 148.721 103.882 148.775 98.613C147.749 99.1596 143.544 100.952 134.691 99.4011V99.4042Z" fill="#002346"/>
<path d="M150.503 123.002C150.452 123.002 150.401 122.976 150.372 122.932C142.249 111.066 130.562 106.916 130.444 106.875C130.396 106.859 130.361 106.821 130.345 106.777C130.33 106.729 130.336 106.678 130.365 106.637C132.386 103.615 138.022 102.862 138.261 102.833C138.35 102.823 138.427 102.884 138.44 102.97C138.452 103.055 138.389 103.135 138.303 103.148C138.245 103.154 132.787 103.882 130.747 106.646C132.325 107.247 143.037 111.648 150.637 122.751C150.688 122.824 150.669 122.922 150.595 122.97C150.567 122.989 150.538 122.999 150.506 122.999L150.503 123.002Z" fill="#002346"/>
<path d="M150.716 123.529H150.713C150.624 123.529 150.557 123.453 150.557 123.367C150.723 117.092 154.462 105.509 154.947 104.038L148.67 102.096C148.587 102.071 148.539 101.982 148.564 101.896C148.59 101.813 148.679 101.766 148.765 101.791L155.199 103.78C155.24 103.793 155.275 103.822 155.294 103.86C155.313 103.898 155.317 103.942 155.304 103.984C155.262 104.111 151.057 116.748 150.882 123.377C150.882 123.463 150.809 123.533 150.723 123.533L150.716 123.529Z" fill="#002346"/>
<path d="M149.534 89.547C149.534 93.1441 148.931 98.3364 148.931 98.3364C143.12 101.333 134.101 99.134 134.101 99.134C128.089 94.9395 124.681 88.9464 124.681 88.9464C125.408 88.7049 126.083 88.4443 126.603 88.0408C128.36 86.6839 129.141 85.076 129.482 83.5189C129.82 81.9841 129.734 80.5002 129.734 79.3594H144.478V82.483C144.522 85.6226 146.489 88.4221 149.438 89.5152C149.496 89.5343 149.528 89.547 149.528 89.547H149.534Z" fill="#F2B3C1"/>
<path d="M141.102 100.062C137.308 100.062 134.12 99.3021 134.066 99.2894L134.012 99.264C128.041 95.0981 124.579 89.0859 124.547 89.0256L124.451 88.8571L124.636 88.7968C125.309 88.5743 126.001 88.3138 126.511 87.9166C128.012 86.7599 128.933 85.3109 129.332 83.4869C129.612 82.2222 129.597 80.9638 129.584 79.9501C129.584 79.7436 129.577 79.5466 129.577 79.3591V79.2002H144.64V82.4795C144.685 85.5365 146.636 88.3042 149.499 89.3656C149.556 89.3846 149.591 89.3973 149.591 89.3973L149.693 89.4355V89.5467C149.693 93.1089 149.097 98.3012 149.091 98.3552L149.081 98.4378L149.005 98.4759C146.636 99.6962 143.722 100.058 141.099 100.058L141.102 100.062ZM134.171 98.9876C134.732 99.1178 143.254 101.028 148.785 98.2344C148.861 97.5576 149.365 92.95 149.375 89.6611C146.397 88.5489 144.369 85.6668 144.325 82.4859V79.5211H129.896C129.896 79.661 129.896 79.804 129.899 79.9501C129.912 80.9765 129.928 82.2571 129.641 83.5568C129.227 85.457 128.264 86.9664 126.702 88.1708C126.201 88.5584 125.557 88.819 124.92 89.0383C125.519 90.0329 128.825 95.2538 134.168 98.9907L134.171 98.9876Z" fill="#002346"/>
<path d="M109.656 148.435C109.637 148.435 109.617 148.432 109.598 148.426C109.515 148.394 109.474 148.302 109.506 148.222C110.72 144.994 113.688 143.974 113.813 143.932C113.896 143.904 113.985 143.948 114.014 144.034C114.042 144.117 113.998 144.206 113.912 144.234C113.883 144.244 110.963 145.251 109.802 148.334C109.777 148.397 109.716 148.435 109.653 148.435H109.656Z" fill="#002346"/>
<path d="M158.863 162.923C158.863 162.923 160.951 164.264 163.909 164.451C164.735 164.502 165.105 165.519 164.483 166.066C164.142 166.364 163.635 166.631 162.879 166.774L158.859 162.926L158.863 162.923Z" fill="#F2B3C1"/>
<path d="M162.831 166.942L158.754 163.037L158.952 162.789C158.971 162.802 161.043 164.111 163.922 164.292C164.374 164.321 164.75 164.604 164.897 165.032C165.041 165.449 164.923 165.89 164.591 166.183C164.183 166.542 163.619 166.793 162.914 166.926L162.834 166.942H162.831ZM159.78 163.58L162.933 166.599C163.542 166.472 164.03 166.253 164.381 165.944C164.658 165.7 164.674 165.366 164.594 165.134C164.511 164.896 164.288 164.632 163.902 164.607C162.133 164.495 160.686 163.984 159.784 163.577L159.78 163.58Z" fill="#002346"/>
<path d="M153.296 177.289C153.296 177.289 151.893 179.228 150.207 180.623C149.936 180.845 149.792 181.201 149.888 181.538C149.987 181.887 150.338 182.237 151.342 182.237C151.342 182.237 150.542 183.034 152.945 183.235C152.945 183.235 153.548 185.43 157.153 183.435C157.153 183.435 163.191 179.892 165.381 175.173L165.57 173.247C165.57 173.247 162.363 169.85 162.162 169.65C161.961 169.45 159.959 168.252 159.959 168.252L153.146 175.043L153.299 177.289H153.296Z" fill="#F2B3C1"/>
<path d="M154.577 184.433C154.265 184.433 153.981 184.379 153.726 184.274C153.152 184.032 152.91 183.587 152.827 183.384C151.788 183.286 151.214 183.06 151.08 182.694C151.039 182.586 151.045 182.478 151.074 182.386C150.146 182.323 149.83 181.922 149.735 181.579C149.626 181.198 149.77 180.775 150.105 180.499C151.613 179.253 152.91 177.54 153.133 177.242L152.98 174.982L159.933 168.052L160.038 168.115C160.246 168.239 162.066 169.329 162.273 169.539C162.474 169.739 165.553 172.999 165.684 173.139L165.735 173.193L165.528 175.24C163.341 179.952 157.297 183.537 157.236 183.575C156.2 184.15 155.311 184.436 154.584 184.436L154.577 184.433ZM153.305 175.106L153.455 177.337L153.423 177.385C153.411 177.404 151.989 179.358 150.305 180.747C150.07 180.94 149.964 181.236 150.038 181.493C150.175 181.976 150.822 182.078 151.338 182.078H151.724L151.453 182.348C151.453 182.348 151.338 182.469 151.383 182.586C151.415 182.672 151.625 182.965 152.958 183.076L153.069 183.085L153.098 183.193C153.104 183.216 153.258 183.734 153.86 183.985C154.6 184.29 155.709 184.051 157.077 183.295C157.134 183.263 163.073 179.736 165.228 175.128L165.407 173.301C164.999 172.872 162.235 169.942 162.053 169.761C161.922 169.631 160.759 168.916 159.987 168.452L153.312 175.106H153.305Z" fill="#002346"/>
<path d="M151.339 182.396C151.278 182.396 151.221 182.361 151.192 182.304C151.157 182.224 151.192 182.129 151.272 182.094C151.31 182.075 155.289 180.257 158.831 175.945C158.885 175.879 158.987 175.866 159.054 175.923C159.121 175.98 159.133 176.079 159.076 176.145C155.486 180.518 151.444 182.364 151.403 182.383C151.38 182.393 151.358 182.396 151.339 182.396Z" fill="#002346"/>
<path d="M152.942 183.393C152.878 183.393 152.821 183.358 152.795 183.294C152.76 183.215 152.798 183.12 152.881 183.088C152.92 183.072 156.723 181.461 160.867 178.512C160.937 178.461 161.039 178.477 161.09 178.55C161.141 178.62 161.125 178.722 161.052 178.773C156.876 181.744 153.044 183.367 153.006 183.383C152.987 183.393 152.964 183.396 152.945 183.396L152.942 183.393Z" fill="#002346"/>
<path d="M133.103 104.688C133.078 104.688 133.049 104.682 133.023 104.666C127.856 101.695 117.514 91.5488 117.412 91.4471C117.348 91.3867 117.348 91.285 117.412 91.2215C117.473 91.1579 117.575 91.1579 117.638 91.2215C117.74 91.3232 128.053 101.441 133.186 104.393C133.263 104.437 133.288 104.533 133.243 104.609C133.215 104.66 133.161 104.688 133.106 104.688H133.103Z" fill="#002346"/>
<path d="M151.979 102.941C151.953 102.941 151.928 102.935 151.906 102.922C151.829 102.881 151.797 102.785 151.839 102.706C154.437 97.8503 154.982 92.5785 154.988 92.5277C154.998 92.4419 155.074 92.3752 155.164 92.3847C155.25 92.3942 155.317 92.4705 155.307 92.5595C155.301 92.6135 154.752 97.9424 152.122 102.858C152.094 102.912 152.039 102.941 151.982 102.941H151.979Z" fill="#002346"/>
<path d="M137.11 47.3984H137.107C130.246 47.3984 124.684 52.9427 124.684 59.7818V69.9726C124.684 76.8118 130.246 82.356 137.107 82.356H137.11C143.972 82.356 149.534 76.8118 149.534 69.9726V59.7818C149.534 52.9427 143.972 47.3984 137.11 47.3984Z" fill="#F2B3C1"/>
<path d="M137.11 82.5146C130.17 82.5146 124.524 76.8869 124.524 69.9691V59.7815C124.524 52.8637 130.17 47.2393 137.11 47.2393C144.051 47.2393 149.696 52.8669 149.696 59.7815V69.9691C149.696 76.8869 144.051 82.5146 137.11 82.5146ZM137.11 47.557C130.346 47.557 124.843 53.0417 124.843 59.7815V69.9691C124.843 76.7122 130.346 82.1968 137.11 82.1968C143.875 82.1968 149.378 76.7122 149.378 69.9691V59.7815C149.378 53.0417 143.875 47.557 137.11 47.557Z" fill="#002346"/>
<path d="M124.276 65.3779C124.276 65.3779 127.264 65.3779 126.145 53.1915C126.145 53.1915 127.64 54.9901 128.386 51.1928C128.386 51.1928 136.104 57.9834 140.462 52.5909C140.462 52.5909 142.081 56.1881 143.324 52.5909C143.324 52.5909 144.568 54.3895 147.182 53.9891C147.182 53.9891 146.436 65.7751 150.293 63.9765L151.039 56.5853L148.301 47.1952C148.301 47.1952 145.189 42.0029 144.941 42.0029C144.692 42.0029 134.609 43.0007 134.609 43.0007H127.388L122.781 56.9825L124.276 65.3715V65.3779Z" fill="#002346"/>
<path d="M124.683 63.356V70.6869C123.37 70.6234 122.063 69.6129 121.476 68.0685C120.734 66.1079 121.429 64.0265 123.032 63.4228C123.568 63.2226 124.135 63.2099 124.68 63.356H124.683Z" fill="#F2B3C1"/>
<path d="M124.843 70.8556L124.677 70.8461C123.268 70.7762 121.923 69.6863 121.33 68.126C120.555 66.086 121.295 63.9093 122.981 63.2737C123.53 63.0672 124.132 63.0418 124.728 63.2006L124.846 63.2324V70.8525L124.843 70.8556ZM123.954 63.4199C123.657 63.4199 123.367 63.4707 123.093 63.5756C121.572 64.1476 120.916 66.14 121.63 68.018C122.156 69.3971 123.303 70.3822 124.527 70.5188V63.4835C124.336 63.4421 124.145 63.4199 123.957 63.4199H123.954Z" fill="#002346"/>
<path d="M137.41 53.6486C137.41 53.6486 137.401 53.6486 137.394 53.6486C130.677 52.9495 127.684 47.8271 127.652 47.7762C127.607 47.7 127.636 47.6046 127.713 47.5602C127.789 47.5157 127.888 47.5443 127.929 47.6205C127.958 47.6714 130.878 52.6508 137.426 53.334C137.512 53.3435 137.576 53.4198 137.57 53.5088C137.56 53.5914 137.493 53.6517 137.41 53.6517V53.6486Z" fill="white"/>
<path d="M134.404 51.8537C134.382 51.8537 134.359 51.8505 134.337 51.8378C131.726 50.6367 130.684 49.3561 130.642 49.302C130.588 49.2321 130.598 49.1336 130.668 49.0796C130.738 49.0256 130.837 49.0351 130.891 49.105C130.9 49.1177 131.937 50.3856 134.471 51.5518C134.551 51.59 134.586 51.6821 134.547 51.7616C134.522 51.8188 134.461 51.8537 134.404 51.8537Z" fill="white"/>
<path d="M110.755 70.8306C110.692 70.8306 110.634 70.7956 110.609 70.7321C108.983 66.8871 111.814 63.8016 111.843 63.7698C113.022 62.5941 114.221 60.8114 114.23 60.7923C114.278 60.7192 114.377 60.7002 114.45 60.7478C114.524 60.7955 114.543 60.894 114.495 60.9671C114.482 60.9862 113.271 62.7911 112.069 63.989C112.047 64.0145 109.359 66.9538 110.902 70.6081C110.937 70.6876 110.899 70.7829 110.816 70.8147C110.797 70.8242 110.775 70.8274 110.755 70.8274V70.8306Z" fill="white"/>
<path d="M150.637 45.0593C150.589 45.0593 150.544 45.0402 150.512 45.0021C146.209 39.7367 138.306 40.458 138.226 40.4644C138.137 40.4707 138.06 40.4104 138.051 40.3214C138.041 40.2356 138.105 40.1562 138.194 40.1466C138.274 40.1403 146.346 39.403 150.758 44.7987C150.812 44.8655 150.803 44.9671 150.736 45.0212C150.707 45.0466 150.672 45.0561 150.634 45.0561L150.637 45.0593Z" fill="white"/>
<path d="M140.334 165.109L143.12 166.053C143.12 166.053 144.523 166.453 145.125 168.248C145.125 168.248 146.528 171.846 149.534 173.841C149.534 173.841 153.994 177.448 156.835 181.63C157.134 182.068 157.724 182.198 158.177 181.916C158.617 181.642 158.767 181.077 158.524 180.622L155.438 174.61C155.362 174.464 155.534 174.315 155.671 174.41L158.116 176.129C158.403 176.329 158.62 176.612 158.748 176.936L160.319 181.013C160.523 181.541 161.167 181.763 161.642 181.448C161.939 181.251 162.216 180.889 162.363 180.231C162.363 180.231 163.163 180.432 162.965 178.633L163.131 174.839C163.153 174.318 163.016 173.8 162.733 173.361L160.389 169.688C160.389 169.688 160.396 169.672 160.402 169.678L163.475 172.278C163.851 172.595 164.161 172.983 164.39 173.418L165.621 175.776C165.917 176.342 166.638 176.526 167.17 176.174C167.629 175.868 167.782 175.268 167.527 174.782L164.349 168.747C163.963 168.016 163.469 167.349 162.886 166.764L160.029 163.917C158.795 162.687 157.307 161.744 155.668 161.149L149.34 158.855L145.534 157.057C145.534 157.057 145.572 161.559 140.34 165.103L140.334 165.109Z" fill="#F2B3C1"/>
<path d="M157.654 182.23C157.284 182.23 156.924 182.052 156.701 181.725C153.908 177.61 149.477 174.007 149.432 173.972C146.432 171.979 144.988 168.35 144.975 168.312C144.408 166.615 143.129 166.225 143.075 166.209L139.977 165.16L140.241 164.982C145.332 161.534 145.364 157.114 145.364 157.07V156.815L149.4 158.722L155.715 161.01C157.364 161.607 158.894 162.577 160.134 163.816L162.99 166.663C163.59 167.257 164.09 167.937 164.482 168.684L167.661 174.718C167.954 175.278 167.779 175.964 167.253 176.314C166.963 176.507 166.599 176.568 166.261 176.482C165.923 176.396 165.636 176.167 165.474 175.859L164.243 173.501C164.023 173.082 163.73 172.713 163.367 172.408L161.052 170.454L162.86 173.288C163.159 173.759 163.306 174.302 163.28 174.858L163.115 178.652C163.207 179.456 163.105 180.006 162.809 180.26C162.7 180.356 162.579 180.394 162.477 180.406C162.334 180.953 162.079 181.353 161.722 181.592C161.463 181.763 161.141 181.808 160.839 181.712C160.526 181.614 160.281 181.382 160.163 181.08L158.591 177.003C158.476 176.708 158.279 176.453 158.017 176.269L155.572 174.55L158.661 180.562C158.938 181.086 158.763 181.747 158.256 182.062C158.068 182.18 157.858 182.237 157.651 182.237L157.654 182.23ZM140.684 165.061L143.174 165.904C143.228 165.919 144.656 166.345 145.278 168.201C145.291 168.23 146.697 171.766 149.623 173.711C149.681 173.756 154.147 177.388 156.965 181.544C157.217 181.916 157.711 182.021 158.09 181.786C158.457 181.557 158.585 181.08 158.384 180.702L155.298 174.687C155.231 174.553 155.26 174.401 155.371 174.302C155.483 174.204 155.642 174.197 155.763 174.283L158.208 176.002C158.521 176.221 158.76 176.527 158.897 176.882L160.469 180.959C160.552 181.172 160.724 181.334 160.944 181.404C161.151 181.471 161.374 181.439 161.553 181.322C161.868 181.112 162.088 180.734 162.206 180.203L162.241 180.044L162.401 180.082C162.401 180.082 162.512 180.105 162.614 180.009C162.729 179.904 162.911 179.587 162.805 178.656L162.971 174.839C162.994 174.347 162.863 173.867 162.598 173.454L160.182 169.666L160.386 169.475L160.501 169.561L163.577 172.16C163.972 172.494 164.291 172.894 164.53 173.349L165.761 175.707C165.882 175.935 166.092 176.104 166.344 176.171C166.596 176.234 166.864 176.19 167.081 176.047C167.473 175.786 167.603 175.278 167.383 174.861L164.205 168.827C163.829 168.109 163.344 167.454 162.77 166.882L159.914 164.035C158.706 162.831 157.217 161.887 155.61 161.302L149.282 159.008L145.677 157.305C145.594 158.287 144.994 162.011 140.687 165.055L140.684 165.061Z" fill="#002346"/>
<path d="M137.111 165.056L139.715 165.656C139.715 165.656 145.326 162.059 145.527 157.067L144.022 156.457C144.022 156.457 142.718 161.662 137.107 165.056H137.111Z" fill="white"/>
<path d="M139.744 165.824L136.689 165.122L137.024 164.919C142.517 161.595 143.853 156.466 143.866 156.415L143.91 156.237L145.686 156.959V157.07C145.479 162.087 139.855 165.751 139.798 165.786L139.74 165.821L139.744 165.824ZM137.522 164.985L139.683 165.484C140.257 165.097 145.102 161.703 145.361 157.168L144.127 156.666C143.843 157.588 142.287 161.948 137.522 164.985Z" fill="#002346"/>
<path d="M136.509 165.615C136.509 165.615 136.48 165.615 136.464 165.608L115.42 159.615C115.334 159.59 115.286 159.504 115.312 159.418C115.337 159.332 115.423 159.285 115.509 159.31L136.489 165.284C141.676 162.577 143.803 156.901 144.125 155.954L130.231 150.019C125.284 147.651 113.928 144.267 113.817 144.232C113.734 144.207 113.686 144.124 113.708 144.041C114.081 142.561 113.173 141.814 113.163 141.807C113.112 141.766 113.09 141.696 113.112 141.636L115.857 133.148C120.333 116.338 118.739 109.824 118.723 109.761C118.701 109.675 118.752 109.589 118.838 109.567C118.924 109.544 119.01 109.595 119.032 109.681C119.048 109.745 120.671 116.316 116.163 133.237L113.45 141.636C113.689 141.871 114.33 142.646 114.056 143.971C115.395 144.372 125.708 147.502 130.369 149.729L144.389 155.719C144.462 155.751 144.504 155.834 144.478 155.91C144.459 155.977 142.387 162.602 136.582 165.592C136.56 165.605 136.534 165.611 136.509 165.611V165.615Z" fill="#002346"/>
<path d="M162.162 117.072C162.105 117.072 162.047 117.04 162.022 116.986C158.837 110.834 158.598 105.388 158.598 105.334C158.595 105.245 158.665 105.172 158.751 105.168C158.837 105.162 158.913 105.232 158.917 105.321C158.917 105.375 159.156 110.755 162.305 116.84C162.347 116.919 162.315 117.015 162.238 117.053C162.216 117.066 162.191 117.072 162.165 117.072H162.162Z" fill="#002346"/>
<path d="M162.362 180.397C162.289 180.397 162.222 180.346 162.206 180.273L161.24 175.811C161.16 175.449 160.953 175.128 160.65 174.909L157.619 172.71C157.549 172.659 157.533 172.558 157.584 172.488C157.635 172.418 157.733 172.402 157.807 172.453L160.838 174.652C161.202 174.915 161.457 175.303 161.553 175.745L162.519 180.206C162.538 180.292 162.483 180.378 162.397 180.394C162.385 180.394 162.375 180.397 162.362 180.397Z" fill="#002346"/>
<path d="M38.5163 134.994L26.5519 154.374C23.6381 146.589 21.9198 138.4 21.4512 130.075C24.2438 126.9 26.6443 124.161 26.6443 124.161L38.5163 134.994Z" fill="#424242"/>
<path d="M26.517 154.737L26.4023 154.432C23.4821 146.627 21.7606 138.435 21.292 130.084V130.021L21.3302 129.973C24.1229 126.799 26.5234 124.059 26.5234 124.059L26.6318 123.936L38.7205 134.965L26.517 154.734V154.737ZM21.614 130.132C22.0826 138.318 23.7531 146.351 26.5872 154.015L38.3125 135.026L26.6573 124.39C26.1664 124.952 24.0432 127.374 21.614 130.132Z" fill="#002346"/>
<path d="M42.4285 126.767C43.2542 127.536 43.3594 128.823 43.3594 128.823C43.5188 133.602 37.3724 136.948 37.3724 136.948C37.3054 134.323 33.4098 131.301 33.4098 131.301L24.8438 127.352C24.8438 127.352 25.0797 124.171 27.155 121.73C27.3654 121.482 27.5663 121.228 27.7352 120.948C28.1242 120.313 28.7522 119.137 28.9594 117.888C28.9594 117.888 29.3164 115.728 33.3428 118.295L42.4285 126.767Z" fill="white"/>
<path d="M37.2191 137.209L37.2128 136.948C37.149 134.504 33.5785 131.635 33.3266 131.435L24.6777 127.447L24.6873 127.336C24.6969 127.202 24.9487 124.072 27.0368 121.622C27.2855 121.33 27.4608 121.095 27.6043 120.863C27.9645 120.272 28.6021 119.096 28.8061 117.86C28.8093 117.838 28.9081 117.278 29.5075 117.011C30.3395 116.643 31.6593 117.027 33.4318 118.159L42.5398 126.649C43.4006 127.453 43.5153 128.753 43.5217 128.807C43.6843 133.637 37.7069 136.945 37.4519 137.082L37.2223 137.205L37.2191 137.209ZM25.0157 127.253L33.5084 131.174C33.6646 131.295 37.2191 134.082 37.5156 136.681C38.5995 136.033 43.34 132.947 43.2029 128.829C43.2029 128.826 43.0913 127.603 42.323 126.884L33.2374 118.413C31.1716 117.1 30.1387 117.084 29.6382 117.307C29.1951 117.504 29.1217 117.914 29.1217 117.917C28.9081 119.204 28.2514 120.421 27.8784 121.031C27.7254 121.279 27.5437 121.527 27.2823 121.832C25.4779 123.951 25.0826 126.681 25.0188 127.256L25.0157 127.253Z" fill="#002346"/>
<path d="M52.225 110.759C54.4247 110.686 55.1261 111.156 59.3852 110.701C61.435 110.482 63.4402 109.967 65.3371 109.167L70.4378 107.019C71.7831 106.567 71.8883 104.391 71.8883 104.391C71.9967 103.228 70.9797 102.722 70.9797 102.722C73.4472 100.6 71.2762 98.388 71.2762 98.388C71.1455 98.1401 71.0563 97.9336 70.9957 97.7588C70.8713 97.4061 70.9447 97.0089 71.1933 96.7324C71.4994 96.3956 71.6524 95.9666 71.7193 95.5471C71.8437 94.775 71.6683 93.9837 71.2571 93.3132L68.3401 88.5436C66.048 86.5639 63.1151 89.4524 63.1151 89.4524C62.1969 89.3856 62.4839 88.6738 62.4839 88.6738L66.303 81.969C68.1648 77.3868 64.6899 75.3785 64.6899 75.3785C63.386 75.0798 63.4275 76.3508 63.4275 76.3508C62.9652 79.1408 62.1969 80.7011 62.1969 80.7011C59.6785 85.1752 54.7722 90.2659 54.7722 90.2659C52.5088 91.1556 50.6215 96.4115 50.6215 96.4115C50.0062 97.8637 48.9351 99.0108 48.4154 99.5161C48.2815 99.6463 48.1381 99.7607 47.9914 99.872C46.9681 100.647 44.405 105.334 44.405 105.334L39.1321 112.135C33.7477 118.582 30.1963 121.115 30.1963 121.115C30.1963 121.115 30.1644 128.446 34.8985 129.984C34.8985 129.984 39.894 131.483 41.7144 128.156L50.341 112.888C50.341 112.888 51.7915 110.768 52.2187 110.752L52.225 110.759Z" fill="#F2B3C1"/>
<path d="M37.3917 130.476C36.0113 130.476 34.8859 130.148 34.8636 130.142C30.0721 128.582 30.0498 121.194 30.0498 121.121V121.038L30.1168 120.99C30.1518 120.965 33.7159 118.391 39.0207 112.039L44.2904 105.242C44.3828 105.07 46.8694 100.536 47.9087 99.7476C48.0458 99.6427 48.1892 99.5315 48.32 99.4044C48.8747 98.8674 49.8948 97.7583 50.4909 96.3538C50.5643 96.1473 52.4069 91.0789 54.6959 90.1383C55.0657 89.7506 59.6818 84.8761 62.0728 80.6275C62.076 80.6212 62.8315 79.0609 63.2842 76.3281C63.2842 76.3281 63.2682 75.7275 63.6763 75.3907C63.9345 75.1778 64.2916 75.1238 64.7379 75.2255L64.7825 75.2414C64.8176 75.2636 68.353 77.3704 66.4626 82.0289L62.6338 88.7497C62.6338 88.7497 62.5669 88.9467 62.6594 89.0928C62.7391 89.2168 62.9144 89.2676 63.0706 89.2867C63.4946 88.899 66.2585 86.5253 68.4582 88.4223L68.4901 88.4605L71.4071 93.2302C71.8438 93.9451 72.016 94.7777 71.8885 95.5689C71.8056 96.0901 71.6143 96.5159 71.3242 96.8368C71.1138 97.0688 71.05 97.3993 71.1584 97.7043C71.219 97.8823 71.3083 98.0793 71.4198 98.2922C71.5537 98.4352 72.3794 99.3694 72.3284 100.596C72.2965 101.355 71.9363 102.061 71.2541 102.696C71.5665 102.922 72.1435 103.472 72.0574 104.4C72.0542 104.485 71.9299 106.681 70.4985 107.161L65.4074 109.306C63.4946 110.11 61.4766 110.631 59.4108 110.85C56.6501 111.146 55.3621 111.051 54.2272 110.971C53.6024 110.927 53.0126 110.885 52.2411 110.911C52.0116 110.943 51.154 112.007 50.4878 112.976L41.8675 128.235C40.8761 130.043 38.9697 130.469 37.3948 130.469L37.3917 130.476ZM30.3686 121.2C30.3845 121.988 30.6491 128.439 34.9592 129.84C35.0039 129.853 39.8496 131.261 41.587 128.089L50.2136 112.817C50.6727 112.147 51.7661 110.615 52.2252 110.602C53.0158 110.577 53.6151 110.618 54.2463 110.666C55.3685 110.745 56.6437 110.838 59.3726 110.548C61.4097 110.332 63.3958 109.818 65.2798 109.026L70.3806 106.878C71.6175 106.462 71.7323 104.409 71.7355 104.39C71.8311 103.348 70.9544 102.89 70.9161 102.871L70.7025 102.763L70.8811 102.607C71.5952 101.994 71.9714 101.317 72.0032 100.593C72.0542 99.4234 71.1776 98.5115 71.168 98.5019L71.1393 98.4638C71.0182 98.2286 70.9193 98.0094 70.8492 97.8155C70.7026 97.4024 70.7918 96.948 71.0787 96.6303C71.3274 96.357 71.49 95.9852 71.5633 95.5244C71.6781 94.8063 71.5219 94.0532 71.1234 93.3986L68.2191 88.6511C66.0641 86.8208 63.2555 89.5409 63.2268 89.5695L63.1758 89.6203L63.1025 89.614C62.7486 89.5886 62.5031 89.471 62.3756 89.2644C62.1939 88.9753 62.3278 88.6321 62.3342 88.6194L66.1629 81.8954C67.8844 77.65 64.9324 75.718 64.6295 75.5337C64.298 75.4606 64.0429 75.4956 63.8676 75.6386C63.5775 75.8769 63.587 76.3472 63.587 76.3504C63.1216 79.1626 62.3724 80.7101 62.3406 80.7737C59.8348 85.2224 54.9381 90.329 54.8871 90.3798L54.8297 90.4179C52.6588 91.2727 50.7906 96.4174 50.7715 96.4682C50.153 97.9299 49.0978 99.0771 48.5272 99.6332C48.3837 99.773 48.2307 99.8906 48.0872 100.002C47.1021 100.749 44.5677 105.369 44.5422 105.417L39.2534 112.239C34.3153 118.149 30.8723 120.812 30.3527 121.2H30.3686Z" fill="#002346"/>
<path d="M65.1297 106.554C65.1297 106.554 65.1137 106.554 65.1042 106.554L61.5719 105.972C60.8993 105.861 60.2967 105.477 59.9142 104.914C58.6613 103.068 59.6209 101.702 59.9301 101.339C58.7697 99.3215 60.3796 97.4562 60.8068 97.0177C60.3095 96.2487 60.3191 95.4066 60.8387 94.5773C61.1288 94.1133 61.5018 93.7765 61.6931 93.6176C61.1384 92.8486 60.9471 92.0987 61.1256 91.3869C61.4635 90.0459 62.9874 89.3468 63.0511 89.3182C63.1308 89.2833 63.2265 89.3182 63.2615 89.3977C63.2966 89.4771 63.2615 89.5724 63.1818 89.6074C63.1659 89.6137 61.7313 90.2747 61.4348 91.4663C61.2723 92.1178 61.4763 92.82 62.0405 93.5509C62.0661 93.5858 62.0788 93.6271 62.0724 93.6716C62.0661 93.7129 62.0437 93.7511 62.0087 93.7765C61.9226 93.8369 59.9461 95.2827 61.1447 96.9478C61.1926 97.0145 61.183 97.1035 61.1224 97.1575C61.0332 97.237 58.9482 99.1627 60.2649 101.279C60.3031 101.343 60.2936 101.425 60.2394 101.479C60.182 101.533 58.8717 102.817 60.1788 104.743C60.5103 105.232 61.0395 105.569 61.6229 105.667L65.1552 106.249C65.2413 106.262 65.3018 106.344 65.2859 106.43C65.2731 106.509 65.2062 106.563 65.1297 106.563V106.554Z" fill="#002346"/>
<path d="M71.0273 97.1029C70.9731 97.1029 70.9189 97.0743 70.8903 97.0235L68.3813 92.7018C68.3367 92.6256 68.3622 92.5302 68.4387 92.4858C68.5152 92.4413 68.6109 92.4667 68.6555 92.543L71.1644 96.8646C71.209 96.9409 71.1835 97.0362 71.107 97.0807C71.0815 97.0966 71.0528 97.1029 71.0273 97.1029Z" fill="#002346"/>
<path d="M70.983 102.883C70.9289 102.883 70.8778 102.855 70.846 102.807L67.725 97.6561C67.6803 97.5798 67.7026 97.4845 67.7792 97.4368C67.8557 97.3923 67.9513 97.4146 67.9991 97.4908L71.1201 102.642C71.1648 102.718 71.1424 102.813 71.0659 102.861C71.0404 102.877 71.0117 102.883 70.983 102.883Z" fill="#002346"/>
<path d="M71.1459 106.748C71.0694 106.748 70.9992 106.691 70.9897 106.611C70.9833 106.557 70.7825 105.299 69.2554 104.666C68.9845 104.555 68.7581 104.438 68.5637 104.307C68.0855 103.993 67.4447 103.472 67.1259 102.766C67.0908 102.687 67.1259 102.591 67.2056 102.557C67.2853 102.522 67.3809 102.557 67.416 102.636C67.7029 103.271 68.2959 103.754 68.739 104.044C68.9175 104.161 69.1279 104.269 69.3798 104.374C71.0789 105.08 71.2989 106.506 71.3053 106.567C71.318 106.653 71.2575 106.732 71.1714 106.745C71.165 106.745 71.1555 106.745 71.1491 106.745L71.1459 106.748Z" fill="#002346"/>
<path d="M66.6087 102.244C66.6087 102.244 66.596 102.244 66.5896 102.244L60.1149 101.513C60.0288 101.504 59.965 101.424 59.9746 101.339C59.9841 101.253 60.0638 101.186 60.1499 101.199L66.6246 101.93C66.7107 101.939 66.7745 102.019 66.7649 102.104C66.7553 102.187 66.6852 102.244 66.6055 102.244H66.6087Z" fill="#002346"/>
<path d="M61.0178 97.1925C60.9317 97.1925 60.8616 97.1258 60.8584 97.0368C60.8584 96.9478 60.9253 96.8747 61.0146 96.8747L67.1323 96.7031C67.2216 96.7031 67.2949 96.7699 67.2949 96.8588C67.2949 96.9478 67.2279 97.0209 67.1387 97.0209L61.021 97.1925H61.0178Z" fill="#002346"/>
<path d="M61.9197 93.7985C61.8527 93.7985 61.789 93.7541 61.7666 93.6873C61.7411 93.6047 61.789 93.5157 61.8718 93.4903C62.0472 93.4363 67.5336 91.6695 67.5878 91.6536C67.6707 91.6282 67.76 91.6727 67.7887 91.7553C67.8142 91.8379 67.7695 91.9269 67.6867 91.9555C67.4603 92.0286 62.1428 93.7414 61.9675 93.7954C61.9515 93.8017 61.9356 93.8017 61.9197 93.8017V93.7985Z" fill="#002346"/>
<path d="M50.2196 109.236C50.1909 109.236 50.159 109.226 50.1335 109.21C49.1644 108.584 48.5778 107.723 48.3929 106.655C47.8797 103.71 50.5352 100.198 50.6468 100.052C51.8518 98.3965 50.9879 97.564 50.9497 97.529C50.8859 97.4686 50.8795 97.3701 50.9401 97.3034C51.0007 97.2398 51.0995 97.2335 51.1633 97.2939C51.176 97.3034 52.2822 98.3393 50.8987 100.24C50.87 100.278 48.2144 103.792 48.7022 106.601C48.8711 107.58 49.4099 108.368 50.3025 108.943C50.3758 108.991 50.3981 109.089 50.3503 109.162C50.3184 109.21 50.2674 109.236 50.2164 109.236H50.2196Z" fill="#002346"/>
<path d="M58.8529 175.798L58.1133 180.228L63.5742 185.394L64.3138 178.566C64.3138 178.566 61.0749 177.644 58.8529 175.798Z" fill="white"/>
<path d="M63.6988 185.728L57.9414 180.282L58.7416 175.496L58.9552 175.674C61.123 177.476 64.3269 178.404 64.3588 178.41L64.4863 178.448L63.6957 185.728H63.6988ZM58.2857 180.167L63.4534 185.055L64.1452 178.677C63.5394 178.489 60.9221 177.619 58.9679 176.09L58.2857 180.167Z" fill="#002346"/>
<path d="M65.0562 184.838L64.4409 188.067L62.7226 197.069C61.6387 196.494 60.5675 195.878 59.5091 195.223C58.3806 194.524 57.2712 193.78 56.1745 192.986C55.0874 192.198 54.0227 191.391 52.9834 190.561L58.0204 178.562C58.0204 178.562 60.5197 182.163 65.0562 184.838Z" fill="#8A8A8A"/>
<path d="M62.8404 197.311L62.6491 197.209C61.578 196.641 60.4941 196.018 59.4261 195.357C58.2944 194.655 57.169 193.902 56.082 193.113C54.9725 192.309 53.895 191.493 52.8844 190.686L52.792 190.609L57.9883 178.232L58.1541 178.471C58.1796 178.506 60.6885 182.074 65.1389 184.699L65.2346 184.756L62.8404 197.308V197.311ZM53.1777 190.511C54.1564 191.289 55.1989 192.081 56.27 192.856C57.3508 193.638 58.4697 194.388 59.5951 195.087C60.5929 195.703 61.6067 196.288 62.6077 196.825L64.8807 184.915C61.0807 182.646 58.6929 179.713 58.0617 178.881L53.1809 190.511H53.1777Z" fill="#002346"/>
<path d="M220.258 180.435C220.258 180.435 220.851 178.176 218.384 173.161L216.471 169.561C216.038 168.747 215.531 167.975 214.966 167.244C213.628 165.512 211.039 161.515 211.779 157.238C211.779 157.238 212.764 152.128 211.877 149.376L210.497 142.201C210.497 142.201 205.766 135.026 208.329 132.471C208.329 132.471 205.371 127.361 208.922 126.869C208.922 126.869 208.329 124.61 210.105 124.117C210.105 124.117 211.189 123.526 213.653 125.985C213.653 125.985 213.752 124.117 215.821 125.394L223.265 132.468C223.95 133.119 224.492 133.901 224.859 134.769L227.556 141.118C227.556 141.118 227.718 139.573 227.674 138.48C227.655 138.045 227.693 137.613 227.808 137.19C228.079 136.183 228.834 134.902 230.922 136.017C231.2 136.164 231.333 136.484 231.238 136.78C230.916 137.781 230.24 140.206 230.316 142.69C230.316 142.69 230.909 145.541 229.331 147.311C229.331 147.311 230.211 151.693 227.486 157.892C227.278 158.363 227.042 158.817 226.797 159.268C226.414 159.983 225.589 162.249 226.768 167.26C226.768 167.26 227.164 172.665 231.206 176.892L228.149 181.217L221.247 181.315L220.262 180.432L220.258 180.435Z" fill="#F2B3C1"/>
<path d="M221.183 181.48L220.08 180.489L220.102 180.397C220.109 180.375 220.641 178.115 218.241 173.234L216.331 169.64C215.92 168.865 215.416 168.093 214.839 167.346C213.618 165.767 210.857 161.62 211.619 157.216C211.629 157.162 212.588 152.109 211.724 149.43L210.344 142.268C209.984 141.718 205.737 135.08 208.128 132.452C207.822 131.893 206.487 129.297 207.236 127.775C207.504 127.228 208.007 126.882 208.728 126.745C208.629 126.186 208.454 124.425 210.044 123.974C210.21 123.901 211.32 123.539 213.545 125.668C213.615 125.417 213.765 125.083 214.099 124.908C214.539 124.68 215.145 124.8 215.901 125.267L215.926 125.286L223.37 132.36C224.075 133.027 224.623 133.822 225.002 134.715L227.447 140.476C227.489 139.929 227.537 139.128 227.508 138.493C227.489 138.016 227.533 137.568 227.645 137.155C227.862 136.348 228.264 135.798 228.805 135.566C229.386 135.315 230.122 135.423 230.986 135.884C231.33 136.068 231.496 136.469 231.378 136.837C231.078 137.772 230.39 140.215 230.463 142.694C230.486 142.786 231.037 145.557 229.488 147.365C229.587 147.988 230.135 152.239 227.616 157.962C227.4 158.458 227.145 158.938 226.925 159.351C226.532 160.079 225.751 162.303 226.909 167.232C226.915 167.311 227.352 172.656 231.305 176.79L231.394 176.885L228.216 181.382L221.17 181.484L221.183 181.48ZM220.431 180.378L221.301 181.159L228.059 181.064L230.996 176.911C227.043 172.707 226.609 167.33 226.606 167.276C225.426 162.268 226.246 159.958 226.654 159.199C226.87 158.792 227.122 158.318 227.336 157.832C230.011 151.75 229.182 147.387 229.172 147.346L229.156 147.27L229.21 147.209C230.718 145.519 230.164 142.754 230.16 142.729C230.081 140.174 230.782 137.689 231.085 136.739C231.155 136.52 231.053 136.275 230.846 136.164C230.071 135.751 229.43 135.646 228.943 135.859C228.375 136.103 228.095 136.745 227.961 137.238C227.859 137.619 227.814 138.035 227.833 138.48C227.878 139.573 227.722 141.079 227.715 141.143L227.651 141.756L224.715 134.839C224.352 133.987 223.829 133.231 223.156 132.592L215.725 125.531C215.088 125.14 214.581 125.023 214.256 125.191C213.851 125.401 213.813 125.995 213.813 126.001L213.793 126.354L213.542 126.103C211.224 123.793 210.188 124.26 210.178 124.263L210.146 124.276C208.543 124.721 209.053 126.748 209.075 126.834L209.12 127.006L208.941 127.031C208.24 127.129 207.762 127.425 207.523 127.911C206.774 129.436 208.447 132.366 208.466 132.395L208.527 132.5L208.441 132.586C205.999 135.02 210.583 142.045 210.631 142.115L210.653 142.173L212.034 149.348C212.917 152.087 211.976 157.06 211.935 157.27C211.195 161.547 213.899 165.602 215.094 167.149C215.681 167.909 216.194 168.697 216.615 169.488L218.528 173.088C220.743 177.591 220.52 179.888 220.434 180.378H220.431Z" fill="#002346"/>
<path d="M216.806 147.575C216.758 147.575 216.71 147.552 216.679 147.511C215.48 145.89 214.444 141.852 214.154 140.65C214.112 140.479 214.048 140.317 213.966 140.164L210.851 134.521C210.025 133.027 209.359 132.611 208.948 132.525C208.619 132.458 208.435 132.595 208.428 132.601C208.358 132.655 208.259 132.643 208.205 132.576C208.151 132.509 208.16 132.411 208.227 132.354C208.24 132.344 208.521 132.118 208.996 132.211C209.697 132.344 210.414 133.072 211.132 134.365L214.246 140.009C214.345 140.187 214.418 140.377 214.466 140.574C214.753 141.759 215.776 145.747 216.94 147.32C216.991 147.39 216.978 147.492 216.905 147.543C216.876 147.565 216.844 147.575 216.809 147.575H216.806Z" fill="#002346"/>
<path d="M221.54 146.983C221.477 146.983 221.416 146.945 221.391 146.882L217.941 138.054C217.801 137.692 217.635 137.342 217.45 137.015C213.963 130.774 208.875 127.04 208.824 127.002C208.754 126.951 208.738 126.85 208.789 126.78C208.84 126.71 208.942 126.694 209.012 126.745C209.063 126.783 214.205 130.555 217.728 136.859C217.919 137.202 218.091 137.565 218.235 137.94L221.684 146.767C221.716 146.85 221.674 146.942 221.595 146.974C221.576 146.98 221.556 146.983 221.537 146.983H221.54Z" fill="#002346"/>
<path d="M225.286 145.213C225.222 145.213 225.165 145.175 225.139 145.115L221.097 135.385C217.807 129.697 213.592 126.144 213.551 126.109C213.484 126.052 213.474 125.953 213.532 125.887C213.589 125.82 213.688 125.81 213.755 125.868C213.796 125.903 218.056 129.49 221.384 135.245L225.436 144.994C225.471 145.077 225.429 145.169 225.35 145.201C225.33 145.21 225.308 145.213 225.289 145.213H225.286Z" fill="#002346"/>
<path d="M217.712 152.834C216.988 152.834 216.453 152.576 216.44 152.57C216.36 152.532 216.328 152.436 216.37 152.357C216.408 152.278 216.504 152.246 216.583 152.284C216.676 152.328 218.831 153.358 220.218 150.778C220.256 150.721 220.906 149.888 222.373 150.307C222.43 150.314 224.321 150.552 225.433 148.728C225.478 148.569 225.739 147.705 226.412 147.336C226.766 147.142 227.167 147.117 227.604 147.263C227.814 147.333 228.248 147.476 228.911 146.72C228.969 146.653 229.071 146.647 229.137 146.704C229.204 146.761 229.211 146.863 229.153 146.93C228.439 147.743 227.897 147.695 227.505 147.565C227.155 147.448 226.839 147.467 226.568 147.613C225.965 147.943 225.739 148.817 225.739 148.827C225.736 148.843 225.73 148.855 225.72 148.871C224.496 150.905 222.328 150.619 222.306 150.619C221.037 150.26 220.505 150.921 220.482 150.949C219.663 152.478 218.557 152.83 217.712 152.83V152.834Z" fill="#002346"/>
<path d="M63.6664 179.21C63.6664 179.21 63.7876 179.026 63.947 178.696C65.1042 176.296 64.6642 173.433 62.8758 171.457L58.113 166.198C58.113 166.198 56.1684 164.536 55.7986 162.785L54.6892 157.342C54.6892 157.342 53.2992 154.666 54.3193 152.636L54.5967 148.759C54.5967 148.759 58.3904 148.574 58.5785 154.479L60.708 157.984C60.708 157.984 63.2998 154.755 64.2243 149.957C64.2243 149.957 66.9086 138.514 71.445 136.855C71.445 136.855 73.2048 132.241 75.1462 132.333C75.1462 132.333 75.8858 131.04 77.0909 131.412C77.0909 131.412 79.128 130.859 79.0355 136.763C79.0355 136.763 80.7028 136.026 81.1651 141.838L81.9971 151.619C81.9971 151.619 82.8292 153.188 82.4594 157.707C82.1661 161.285 82.1629 164.866 80.9802 167.485C80.5944 168.34 80.0174 169.093 79.3224 169.722C78.213 170.726 75.3981 173.643 74.5883 177.993L66.3539 182.251L63.6696 179.207L63.6664 179.21Z" fill="#F2B3C1"/>
<path d="M66.3124 182.455L63.4656 179.227L63.5325 179.125C63.5325 179.125 63.6505 178.944 63.8035 178.629C64.932 176.287 64.5208 173.517 62.7547 171.569L57.9919 166.31C57.9249 166.256 56.0185 164.606 55.6391 162.82L54.5329 157.396C54.3958 157.126 53.178 154.6 54.1567 152.595L54.4437 148.61L54.5839 148.604C54.6349 148.604 55.8623 148.553 56.9813 149.582C58.0652 150.58 58.6549 152.213 58.7315 154.435L60.7176 157.704C61.2659 156.958 63.2807 153.996 64.0649 149.932C64.1765 149.458 66.797 138.492 71.3175 136.735C71.5502 136.147 73.1697 132.219 75.057 132.178C75.2546 131.889 75.9942 130.942 77.0941 131.253C77.2216 131.234 77.5659 131.219 77.942 131.508C78.5318 131.962 79.2204 133.214 79.1917 136.579C79.3192 136.579 79.4946 136.601 79.6859 136.716C80.2724 137.062 81.0312 138.232 81.3181 141.829L82.147 151.578C82.2649 151.826 82.9599 153.494 82.6124 157.723C82.5582 158.4 82.5136 159.077 82.4689 159.744C82.2745 162.655 82.0928 165.404 81.1204 167.552C80.7379 168.397 80.1672 169.166 79.4244 169.84C78.28 170.876 75.5351 173.745 74.7413 178.022L74.7286 178.099L66.3156 182.449L66.3124 182.455ZM63.8641 179.195L66.3889 182.058L74.4449 177.892C75.2769 173.561 78.0536 170.66 79.214 169.608C79.925 168.963 80.4701 168.229 80.8335 167.425C81.7803 165.328 81.9621 162.608 82.1533 159.729C82.198 159.058 82.2426 158.378 82.3 157.701C82.6602 153.3 81.8632 151.715 81.8537 151.699L81.8345 151.638L81.0025 141.857C80.7156 138.241 79.9632 137.262 79.5392 137.002C79.2842 136.843 79.1025 136.913 79.0929 136.916L78.8697 137.005V136.767C78.9239 133.408 78.2959 132.197 77.7571 131.771C77.4224 131.505 77.1387 131.571 77.1259 131.571L77.0845 131.581L77.0399 131.568C75.9719 131.241 75.2897 132.407 75.2801 132.417L75.2323 132.502H75.1335C73.3259 132.423 71.6044 136.872 71.5885 136.916L71.563 136.983L71.496 137.008C67.0935 138.619 64.4028 149.884 64.3773 149.999C63.456 154.775 60.8546 158.057 60.8291 158.089L60.6857 158.267L58.4159 154.53V154.489C58.3457 152.337 57.7942 150.768 56.7709 149.824C55.9643 149.077 55.0781 148.947 54.7401 148.928L54.4564 152.712C53.4873 154.644 54.8135 157.247 54.8262 157.275L54.8422 157.317L55.9516 162.76C56.3054 164.441 58.1927 166.068 58.2118 166.084L62.9874 171.356C64.8396 173.399 65.2699 176.31 64.084 178.769C63.9916 178.963 63.9087 179.109 63.8577 179.198L63.8641 179.195Z" fill="#002346"/>
<path d="M69.0351 149.475C69.0351 149.475 69.016 149.475 69.0032 149.475C68.9171 149.459 68.8598 149.376 68.8757 149.287L71.2826 136.831C71.2985 136.745 71.3814 136.688 71.4707 136.704C71.5568 136.72 71.6142 136.802 71.5982 136.891L69.1913 149.348C69.1754 149.424 69.1084 149.478 69.0351 149.478V149.475Z" fill="#002346"/>
<path d="M73.6637 149.567C73.6637 149.567 73.6542 149.567 73.651 149.567C73.5617 149.561 73.498 149.481 73.5043 149.395L74.9867 132.325C74.9931 132.236 75.0728 132.169 75.1589 132.179C75.2482 132.185 75.3119 132.264 75.3055 132.35L73.8231 149.421C73.8168 149.503 73.7466 149.567 73.6637 149.567Z" fill="#002346"/>
<path d="M78.9396 153.167C78.8917 153.167 78.8439 153.145 78.812 153.104C77.2244 150.962 77.2946 148.318 77.301 148.207L77.3934 140.828C77.2659 138.903 77.5369 137.6 78.1936 136.971C78.6112 136.57 79.032 136.609 79.0511 136.612C79.1372 136.621 79.201 136.698 79.1914 136.786C79.1818 136.872 79.1053 136.939 79.0193 136.929C79.0033 136.929 78.7132 136.91 78.404 137.212C78.0055 137.603 77.5624 138.544 77.7122 140.822L77.6198 148.217C77.6198 148.245 77.5496 150.867 79.0703 152.92C79.1213 152.989 79.1085 153.091 79.0384 153.142C79.0097 153.164 78.9778 153.174 78.9428 153.174L78.9396 153.167Z" fill="#002346"/>
<path d="M79.4023 155.289C77.8466 155.289 77.429 154.593 77.413 154.565C76.989 153.882 76.5172 153.472 76.0486 153.38C75.6246 153.297 75.344 153.497 75.3313 153.507C75.3217 153.513 75.309 153.523 75.2962 153.526C73.3675 154.295 72.7331 153.338 72.5259 153.027C71.2348 151.098 69.0064 152.01 68.9108 152.051C66.88 152.522 65.5857 152.239 65.2064 151.937C65.1235 151.87 65.082 151.797 65.082 151.721C65.082 151.632 65.1522 151.562 65.2414 151.562C65.3148 151.562 65.3785 151.613 65.3945 151.68C65.5507 151.842 66.7079 152.236 68.8151 151.749C68.8151 151.749 71.3559 150.701 72.7777 152.83C72.9818 153.138 73.4887 153.901 75.1623 153.24C75.2484 153.183 75.6055 152.976 76.1028 153.068C76.6702 153.176 77.2058 153.624 77.6872 154.403C77.6936 154.412 78.0506 154.975 79.4023 154.975C79.4916 154.975 79.5617 155.045 79.5617 155.134C79.5617 155.223 79.4916 155.293 79.4023 155.293V155.289Z" fill="#002346"/>
<path d="M63.2965 178.843L61.167 189.729H73.9411L75.0505 178.102C75.0505 178.102 70.0518 176.809 63.2934 178.839L63.2965 178.843Z" fill="white"/>
<path d="M74.0876 189.888H60.9756L63.1593 178.719L63.2518 178.69C69.9752 176.672 75.044 177.937 75.095 177.95L75.2257 177.985L74.0876 189.888ZM61.3613 189.571H73.7975L74.8814 178.226C74.0526 178.045 69.4237 177.19 63.4367 178.967L61.3645 189.571H61.3613Z" fill="#002346"/>
<path d="M75.7014 188.224L74.8151 202.047C70.6325 200.858 66.5934 199.285 62.7232 197.226C61.6393 196.651 60.5682 196.034 59.5098 195.38L60.6128 188.224H75.7014Z" fill="#8A8A8A"/>
<path d="M74.9613 202.253L74.77 202.199C70.4408 200.969 66.3634 199.342 62.6463 197.365C61.5783 196.8 60.4944 196.177 59.4232 195.513L59.334 195.459L60.4753 188.064H75.8699L74.9613 202.253ZM59.6815 195.3C60.7176 195.939 61.7632 196.539 62.7961 197.086C66.4367 199.024 70.4312 200.623 74.668 201.84L75.532 188.382H60.7494L59.6847 195.3H59.6815Z" fill="#002346"/>
<path d="M220.259 180.435C220.259 180.435 223.217 181.712 231.697 175.913L238.698 186.625L223.613 188.493L220.259 180.435Z" fill="white"/>
<path d="M223.51 188.665L219.962 180.133L220.322 180.289C220.37 180.308 223.367 181.417 231.608 175.783L231.741 175.69L238.968 186.752L223.51 188.665ZM220.529 180.667L223.714 188.318L238.427 186.498L231.655 176.135C224.747 180.832 221.514 180.835 220.533 180.667H220.529Z" fill="#002346"/>
<path d="M238.201 182.891L242.486 189.176C240.219 191.74 237.729 194.054 235.045 196.122C232.967 197.724 230.773 199.179 228.475 200.485L220.457 186.92C220.457 186.92 224.445 187.05 228.931 186.307C232.208 185.763 235.746 184.756 238.201 182.891Z" fill="#8A8A8A"/>
<path d="M228.417 200.701L220.173 186.752L220.463 186.761C220.504 186.761 224.489 186.882 228.905 186.151C232.931 185.484 236.027 184.343 238.105 182.767L238.239 182.665L242.686 189.192L242.603 189.284C240.365 191.814 237.856 194.159 235.14 196.25C233.068 197.845 230.852 199.316 228.551 200.625L228.414 200.701H228.417ZM220.74 187.085L228.535 200.269C230.773 198.989 232.931 197.552 234.949 195.995C237.614 193.939 240.082 191.642 242.284 189.163L238.162 183.116C236.046 184.673 232.95 185.801 228.956 186.462C225.191 187.085 221.735 187.095 220.737 187.082L220.74 187.085Z" fill="#002346"/>
</svg>
