<svg width="852" height="672" viewBox="0 0 852 672" fill="none" xmlns="http://www.w3.org/2000/svg">
<path d="M688.205 176.116C723.262 176.116 751.68 147.699 751.68 112.644C751.68 77.59 723.262 49.1729 688.205 49.1729C653.149 49.1729 624.73 77.59 624.73 112.644C624.73 147.699 653.149 176.116 688.205 176.116Z" fill="white" stroke="#002346" stroke-miterlimit="10"/>
<path d="M488.432 575.533C484.013 574.864 477.98 576.842 474.231 578.328C470.619 579.785 466.821 580.729 462.953 581.192C449.677 582.796 430.93 582.786 430.93 582.786C415.037 582.786 413.069 581.408 413.069 581.408C412.252 580.749 412.193 580.07 412.626 579.421C413.452 578.151 416.129 576.96 418.668 576.065C423.303 574.441 427.742 572.286 431.973 569.767L451.734 558.057L455.06 556.039C456.025 555.459 457.235 555.488 458.16 556.128L463.504 559.818C463.504 559.818 470.147 563.016 476.071 558.637L482.576 554.209C483.511 554.121 484.357 553.993 485.115 553.815C485.686 554.366 486.217 555.606 486.483 558.047L488.441 575.504L488.432 575.533Z" fill="#8C8C8C" stroke="#002346" stroke-linecap="round" stroke-linejoin="round"/>
<path d="M486.473 583.966L424.454 584.95C424.454 584.95 407.479 585.669 412.635 579.42C412.192 580.07 412.251 580.749 413.078 581.408C413.078 581.408 415.046 582.786 430.94 582.786C430.94 582.786 449.687 582.786 462.962 581.191C466.83 580.719 470.629 579.774 474.24 578.328C477.99 576.832 484.022 574.854 488.441 575.533C488.441 575.533 491 583.779 486.483 583.976L486.473 583.966Z" fill="white" stroke="#002346" stroke-miterlimit="10"/>
<path d="M482.576 554.229L476.071 558.657C470.147 563.036 463.504 559.838 463.504 559.838L458.16 556.148V552.487C463.563 553.324 475.412 554.938 482.566 554.239L482.576 554.229Z" fill="#F0B1BF" stroke="#002346" stroke-miterlimit="10"/>
<path d="M361.599 225.427C361.599 225.427 355.459 222.042 347.566 225.427C347.566 225.427 341.711 227.858 336.928 229.295C336.928 229.295 331.072 229.059 333.464 233.959C333.464 233.959 334.064 236.468 342.793 233.241C342.793 233.241 346.503 231.804 344.348 236.468C344.348 236.468 342.075 243.416 329.882 251.957C329.882 251.957 326.536 254.526 329.882 256.199C329.882 256.199 327.726 261.335 333.828 259.781C333.828 259.781 337.882 262.772 344.998 256.789L354.622 249.812C354.967 249.556 355.449 249.586 355.764 249.871C356.167 250.235 356.167 250.875 355.754 251.229C353.795 252.922 348.973 257.399 350.794 258.944C350.794 258.944 352.831 260.814 359.405 254.841C360.487 253.857 361.491 252.804 362.465 251.721C364.857 249.045 371.726 242.028 377.079 243.229C377.079 243.229 380.169 235.976 376.125 230.722C376.125 230.722 372.523 225.388 361.599 225.427Z" fill="#F0B1BF" stroke="#002346" stroke-miterlimit="10"/>
<path d="M333.818 259.78C333.818 259.78 333.1 257.389 336.928 254.643C336.928 254.643 344.338 250.097 347.93 245.196" stroke="#002346" stroke-linecap="round" stroke-linejoin="round"/>
<path d="M344.998 234.451C344.998 234.451 349.722 237.069 354.505 235.642" stroke="#002346" stroke-linecap="round" stroke-linejoin="round"/>
<path d="M488.756 75.0146H480.883V93.013H488.756V75.0146Z" fill="#002346" stroke="#002346" stroke-miterlimit="10"/>
<path d="M449.382 78.3896H441.509V96.388H449.382V78.3896Z" fill="#002346" stroke="#002346" stroke-miterlimit="10"/>
<path d="M510.111 90.3165L534.33 96.5652L518.093 113.629C511.765 120.281 502.829 123.991 493.687 123.282C489.642 122.958 485.125 121.855 480.303 119.474L461.861 119.966L449.815 123.243C445.544 127.858 434.04 133.812 428.027 136.734C426.02 137.718 423.933 138.506 421.837 139.283C403.808 145.896 395.01 172.406 395.01 172.406L379.914 219.532C379.698 220.241 379.088 220.763 378.349 220.861L363.844 222.081L369.158 251.455L390.857 251.908C395.02 251.996 399.114 250.481 402.007 247.489C404.094 245.324 405.796 242.254 405.698 237.983C405.698 237.983 405.737 238.092 405.826 238.289C406.554 239.922 407.725 241.28 409.152 242.254C410.658 243.288 412.449 243.888 414.328 243.967C427.073 244.468 480.332 245.61 514.697 231.715C514.697 231.715 525.975 227.966 524.312 201.642L524.479 167.801L579.038 103.05C579.038 103.05 589.893 88.8502 581.961 76.3232C581.961 76.3232 580.298 71.9737 567.337 70.3894L516.784 65.0361L510.111 90.3263V90.3165Z" fill="#8C8C8C" stroke="#002346" stroke-linecap="round" stroke-linejoin="round"/>
<path d="M443.735 96.9163C445.844 96.412 447.08 94.0234 446.496 91.5814C445.912 89.1394 443.729 87.5687 441.62 88.0731C439.511 88.5774 438.274 90.966 438.858 93.408C439.442 95.85 441.626 97.4207 443.735 96.9163Z" fill="#F0B1BF" stroke="#002346" stroke-miterlimit="10"/>
<path d="M490.317 93.5814C491.018 91.1704 489.898 88.7251 487.816 88.1198C485.733 87.5144 483.477 88.9782 482.776 91.3893C482.075 93.8003 483.195 96.2456 485.277 96.851C487.36 97.4563 489.616 95.9925 490.317 93.5814Z" fill="#F0B1BF" stroke="#002346" stroke-miterlimit="10"/>
<path d="M456.113 113.53V114.445C456.113 116.482 455.237 118.431 453.712 119.779L449.814 123.223L461.515 126.421L465.275 143.986C465.314 144.164 465.57 144.134 465.58 143.957L466.121 126.274L480.322 119.454L478.698 117.141C477.773 115.823 477.32 114.219 477.438 112.605L477.743 108.177L456.132 113.52L456.113 113.53Z" fill="#F0B1BF" stroke="#002346" stroke-miterlimit="10"/>
<path d="M444.501 127.829L454.588 136.016L461.506 126.432" stroke="#002346" stroke-linecap="round" stroke-linejoin="round"/>
<path d="M466.102 126.294L475.628 136.016L486.738 121.983" stroke="#002346" stroke-linecap="round" stroke-linejoin="round"/>
<path d="M405.707 237.964C405.707 237.964 400.718 227.651 407.124 209.397C407.124 209.397 413.54 191.143 412.547 171.904" stroke="#002346" stroke-linecap="round" stroke-linejoin="round"/>
<path d="M466.26 147.027C466.26 147.027 466.309 166.718 461.507 191.88C461.507 191.88 454.49 222.219 457.196 235.051" stroke="#002346" stroke-linecap="round" stroke-linejoin="round"/>
<path d="M481.828 158.492L505.801 154.389" stroke="#002346" stroke-linecap="round" stroke-linejoin="round"/>
<path d="M524.479 167.781C524.479 167.781 528.249 147.47 532.441 142.048" stroke="#002346" stroke-linecap="round" stroke-linejoin="round"/>
<path d="M534.34 96.5654L556.079 104.015" stroke="#002346" stroke-linecap="round" stroke-linejoin="round"/>
<path d="M488.765 555.429L476.789 488.76L469.28 439.075L504.669 539.143C504.669 539.143 509.235 547.399 518.849 546.376C520.001 546.248 521.231 545.992 522.52 545.579C522.52 545.579 528.208 543.06 533.847 538.651C534.083 538.464 534.329 538.267 534.556 538.09C536.199 536.742 537.833 535.246 539.28 533.583C539.467 533.376 539.644 533.16 539.821 532.963C539.87 532.884 539.939 532.816 539.998 532.737C540.165 532.54 540.323 532.333 540.48 532.137C540.953 531.546 541.386 530.926 541.789 530.287C541.946 530.06 542.094 529.824 542.232 529.588C542.301 529.48 542.36 529.371 542.429 529.253C542.586 528.978 542.744 528.702 542.881 528.417C543.059 528.072 543.226 527.738 543.383 527.384C544.102 525.75 544.594 524.018 544.761 522.217C544.879 521.105 544.859 519.954 544.702 518.783L513.535 396.583C512.876 393.985 512.659 391.279 512.896 388.612C514.559 369.443 521.241 286.32 515.759 239.371C515.454 236.685 515.11 234.116 514.706 231.686C480.332 245.58 427.072 244.439 414.337 243.937C412.458 243.858 410.667 243.258 409.161 242.225L408.6 249.979L400.668 359.731C400.668 359.731 399.153 395.471 404.919 418.351C404.919 418.351 425.487 505.892 442.64 550.922L488.775 555.419L488.765 555.429Z" fill="#404040" stroke="#002346" stroke-miterlimit="10"/>
<path d="M469.281 439.085L455.001 402.547C452.629 396.475 451.576 389.98 451.891 383.466L455.542 309.859C455.641 307.96 454.834 306.129 453.377 304.909L451.409 303.266" stroke="#002346" stroke-linecap="round" stroke-linejoin="round"/>
<path d="M542.252 577.098C542.252 577.098 543.383 582.924 527.303 582.786C527.303 582.786 514.067 583.002 511.882 579.991C511.528 579.509 511.469 578.938 511.793 578.279C511.793 578.279 512.413 576.281 513.87 574.48C514.726 573.408 515.277 572.129 515.464 570.78L518.849 546.396C520.001 546.268 521.231 546.012 522.52 545.599C522.52 545.599 528.208 543.079 533.847 538.671C537.626 535.709 541.395 531.891 543.373 527.394C543.472 527.846 546.493 542.174 542.242 577.118L542.252 577.098Z" fill="#8C8C8C" stroke="#002346" stroke-linecap="round" stroke-linejoin="round"/>
<path d="M547.271 535.177C546.09 551.07 544.515 576.901 544.515 576.901C544.269 585.344 539.663 584.951 539.663 584.951H517.491C510.032 584.163 511.882 579.991 511.882 579.991C514.067 583.002 527.303 582.786 527.303 582.786C543.383 582.924 542.252 577.098 542.252 577.098C546.503 542.154 543.482 527.826 543.383 527.374C544.102 525.74 544.594 524.008 544.761 522.207L544.84 522.148C548.402 527.295 547.28 535.177 547.28 535.177H547.271Z" fill="white" stroke="#002346" stroke-miterlimit="10"/>
<path d="M492.102 263.126C492.102 263.126 501.264 288.623 512.65 294.311" stroke="#002346" stroke-linecap="round" stroke-linejoin="round"/>
<path d="M515.76 239.371C456.497 256.966 408.591 249.989 408.591 249.989L409.152 242.235C410.657 243.268 412.449 243.868 414.328 243.947C427.072 244.449 480.332 245.59 514.697 231.695C515.101 234.126 515.445 236.684 515.75 239.381L515.76 239.371Z" fill="white" stroke="#002346" stroke-miterlimit="10"/>
<path d="M420.705 251.032V243.405C420.705 241.634 422.142 240.197 423.913 240.197C425.685 240.197 427.122 241.634 427.122 243.405V251.278C427.122 251.278 424.632 251.278 420.695 251.032H420.705Z" fill="#404040" stroke="#002346" stroke-miterlimit="10"/>
<path d="M446.656 243.79V251.042C446.656 251.042 461.851 250.038 467.637 249.29L467.923 242.186C467.923 242.186 452.925 243.553 446.656 243.79Z" fill="#404040" stroke="#002346" stroke-miterlimit="10"/>
<path d="M492.102 245.305L491.325 238.505C491.187 237.294 491.945 236.163 493.116 235.828C494.572 235.415 496.068 236.399 496.255 237.904L497.072 244.232C497.072 244.232 493.883 244.94 492.092 245.305H492.102Z" fill="#404040" stroke="#002346" stroke-miterlimit="10"/>
<path d="M483.944 81.795C483.944 71.0885 475.264 62.4092 464.557 62.4092C453.85 62.4092 445.17 71.0885 445.17 81.795V97.8449C445.17 108.551 453.85 117.231 464.557 117.231C475.264 117.231 483.944 108.551 483.944 97.8449V81.795Z" fill="#F0B1BF" stroke="#002346" stroke-miterlimit="10"/>
<path d="M450.967 61.2871C450.967 61.2871 432.692 67.0831 443.163 73.9912C443.163 73.9912 439.069 79.1083 441.923 81.7357C442.946 82.6705 444.491 82.8772 445.761 82.3064C447.099 81.6963 448.949 80.2498 450.967 76.8941C450.967 76.8941 454.313 83.3594 466.791 69.9861C466.791 69.9861 472.952 73.7452 480.008 70.0845C480.008 70.0845 483.944 75.113 483.944 81.7947V87.3645C483.944 87.3645 489.868 87.0299 489.445 77.8093C488.993 68.0278 482.202 59.6929 472.853 56.8096C464.41 54.2019 454.756 52.6471 455.641 59.5158C455.641 59.5158 446.509 57.0655 441.382 62.4089C441.382 62.4089 448.064 59.5158 450.967 61.2969V61.2871Z" fill="#002346" stroke="#002346" stroke-miterlimit="10"/>
<path d="M218.727 624.431L218.727 324.403H198.188L198.188 624.431H218.727Z" fill="white" stroke="#002346" stroke-miterlimit="10"/>
<path d="M639.531 624.431V324.403H618.993V624.431H639.531Z" fill="white" stroke="#002346" stroke-miterlimit="10"/>
<path d="M690.715 291.939H140.245C130.973 291.939 123.456 299.456 123.456 308.727V308.737C123.456 318.009 130.973 325.525 140.245 325.525H690.715C699.987 325.525 707.503 318.009 707.503 308.737V308.727C707.503 299.456 699.987 291.939 690.715 291.939Z" fill="white" stroke="#002346" stroke-miterlimit="10"/>
<path d="M194.095 274.374H343.6C345.464 274.374 346.976 272.863 346.976 270.999V176.736C346.976 174.872 345.464 173.361 343.6 173.361H194.095C192.23 173.361 190.719 174.872 190.719 176.736V270.999C190.719 272.863 192.23 274.374 194.095 274.374Z" fill="#404040" stroke="#002346" stroke-miterlimit="10"/>
<path d="M328.061 179.324H205.639" stroke="#002346" stroke-linecap="round" stroke-linejoin="round"/>
<path d="M276.307 237.049H245.947L237.346 282.532C236.392 287.6 240.269 292.284 245.426 292.284H304.669C304.669 288.161 301.323 284.825 297.209 284.825H290.636C286.138 284.825 282.33 281.499 281.729 277.041L276.317 237.059L276.307 237.049Z" fill="#95607A"/>
<path d="M276.307 237.049H245.947L237.346 282.532C236.392 287.6 240.269 292.284 245.426 292.284H304.669C304.669 288.161 301.323 284.825 297.209 284.825H290.636C286.138 284.825 282.33 281.499 281.729 277.041L276.317 237.059L276.307 237.049Z" fill="white" stroke="#002346" stroke-miterlimit="10"/>
<path d="M330.089 232.109H311.41C319.578 226.273 318.023 216.157 318.023 216.157H335.521C335.521 216.157 335.531 225.102 330.089 232.109Z" fill="#8C8C8C" stroke="#002346" stroke-linecap="round" stroke-linejoin="round"/>
<path d="M247.689 216.167H229.011C237.179 210.332 235.624 200.216 235.624 200.216H253.121C253.121 200.216 253.131 209.161 247.689 216.167Z" fill="#8C8C8C" stroke="#002346" stroke-linecap="round" stroke-linejoin="round"/>
<path d="M226.492 208.187H207.813C215.982 202.351 214.427 192.235 214.427 192.235H231.924C231.924 192.235 231.934 201.18 226.492 208.187Z" fill="#8C8C8C" stroke="#002346" stroke-linecap="round" stroke-linejoin="round"/>
<path d="M661.318 286.793H574.904C574.264 286.793 573.743 286.271 573.743 285.632V261.257C573.743 260.617 574.264 260.096 574.904 260.096H661.318V286.793Z" fill="white" stroke="#002346" stroke-miterlimit="10"/>
<path d="M663.671 292.274H574.757C571.972 292.274 569.797 289.863 569.797 286.793V261.621C569.797 258.541 571.972 256.14 574.757 256.14H663.671C665.856 256.14 667.627 257.911 667.627 260.096C667.627 262.28 665.856 264.051 663.671 264.051H577.709V284.372H663.671C665.856 284.372 667.627 286.143 667.627 288.328C667.627 290.513 665.856 292.284 663.671 292.284V292.274Z" fill="#404040" stroke="#002346" stroke-miterlimit="10"/>
<path d="M669.201 250.796H582.787C582.147 250.796 581.626 250.274 581.626 249.635V225.26C581.626 224.62 582.147 224.099 582.787 224.099H669.201V250.796Z" fill="white" stroke="#002346" stroke-miterlimit="10"/>
<path d="M671.544 256.277H582.63C579.845 256.277 577.67 253.866 577.67 250.796V225.624C577.67 222.544 579.845 220.143 582.63 220.143H671.544C673.729 220.143 675.5 221.914 675.5 224.098C675.5 226.283 673.729 228.054 671.544 228.054H585.582V248.375H671.544C673.729 248.375 675.5 250.146 675.5 252.331C675.5 254.516 673.729 256.287 671.544 256.287V256.277Z" fill="#8C8C8C" stroke="#002346" stroke-linecap="round" stroke-linejoin="round"/>
<path d="M455.588 91.669C456.299 91.6264 456.814 90.5803 456.739 89.3326C456.665 88.0848 456.028 87.1078 455.317 87.1504C454.606 87.193 454.091 88.2391 454.166 89.4868C454.24 90.7346 454.877 91.7116 455.588 91.669Z" fill="#002346" stroke="#002346" stroke-miterlimit="10"/>
<path d="M471.497 91.7402C472.208 91.6976 472.723 90.6516 472.649 89.4038C472.574 88.1561 471.937 87.1791 471.226 87.2217C470.516 87.2643 470 88.3103 470.075 89.5581C470.15 90.8059 470.786 91.7828 471.497 91.7402Z" fill="#002346" stroke="#002346" stroke-miterlimit="10"/>
<path d="M463.002 89.1455L461.171 98.9959C461.043 99.5273 461.496 100.019 462.037 99.9406L465.137 99.7634" stroke="#002346" stroke-linecap="round" stroke-linejoin="round"/>
<path d="M453.082 83.684C453.082 83.684 455.365 81.1549 458.308 83.4084" stroke="#002346" stroke-linecap="round" stroke-linejoin="round"/>
<path d="M467.805 83.9203C467.805 83.9203 470.088 81.3913 473.03 83.6447" stroke="#002346" stroke-linecap="round" stroke-linejoin="round"/>
<path d="M467.007 109.289C465.432 108.895 462.765 108.521 460.118 109.495C459.606 109.682 459.164 109.112 459.439 108.649C460.797 106.317 463.858 102.705 467.637 108.413C467.922 108.846 467.519 109.417 467.017 109.289H467.007Z" fill="white" stroke="#002346" stroke-miterlimit="10"/>
<path d="M514.638 73.8924L495.153 70.7828C493.697 70.5466 492.437 69.6118 491.846 68.2636C490.734 65.7051 488.028 61.3555 481.818 58.1967C481.818 58.1967 467.362 51.2592 470.905 57.439L474.762 58.8462C474.762 58.8462 473.385 60.6372 478.492 63.6287C478.492 63.6287 482.675 65.892 484.062 74.6501C484.062 74.6501 485.174 82.0502 492.279 84.9531L510.102 90.3064C510.102 90.3064 511.824 83.4574 514.638 73.8924Z" fill="#F0B1BF" stroke="#002346" stroke-miterlimit="10"/>
<path d="M474.771 58.8468C474.771 58.8468 481.06 58.3351 486.738 67.6639" stroke="#002346" stroke-linecap="round" stroke-linejoin="round"/>
<path d="M441.863 91.4971C441.863 91.4971 441.735 92.8551 442.463 93.5833" stroke="#002346" stroke-linecap="round" stroke-linejoin="round"/>
<path d="M487.467 91.4971C487.467 91.4971 487.594 92.8551 486.866 93.5833" stroke="#002346" stroke-linecap="round" stroke-linejoin="round"/>
<path d="M100.782 395.569C102.583 386.929 109.61 380.316 118.339 378.063C130.679 374.875 150.962 375.327 167.534 403.058C167.534 403.058 183.014 427.571 173.951 463.115C173.951 463.115 172.091 445.067 142.932 432.146C139.713 430.72 136.377 429.548 133.002 428.525C123.889 425.77 96.5998 415.742 100.792 395.559L100.782 395.569Z" fill="#7CCF92" stroke="#002346" stroke-miterlimit="10"/>
<path d="M205.323 365.379C201.377 366.117 197.755 368.134 195.354 371.273C190.66 377.394 187.117 390.236 199.182 415.969C199.182 415.969 216.975 452.674 187.885 496.474C187.885 496.474 234.817 476.016 246.665 432.727C250.769 417.74 249.588 401.749 242.985 387.648C237.011 374.885 225.773 361.57 205.333 365.379H205.323Z" fill="#7CCF92" stroke="#002346" stroke-miterlimit="10"/>
<path d="M179.067 555.144C179.067 555.144 156.305 522.325 195.591 489.133C196.476 488.385 197.382 487.677 198.297 486.968C205.707 481.231 250.405 443.493 219.632 390.659" stroke="#002346" stroke-linecap="round" stroke-linejoin="round"/>
<path d="M146.198 403.59C146.198 403.59 187.767 430.464 169.728 477.935C169.728 477.935 149.662 526.41 170.958 554.15" stroke="#002346" stroke-linecap="round" stroke-linejoin="round"/>
<path d="M91.4624 479.755C91.5116 474.284 95.0052 469.433 100.063 467.071C107.198 463.755 119.598 461.747 132.923 476.803C132.923 476.803 144.998 489.793 143.827 512.101C143.827 512.21 143.659 512.249 143.62 512.141C142.744 510.015 138.168 501.267 121.33 497.222C119.214 496.711 117.049 496.376 114.884 496.13C109.039 495.471 91.3542 492.41 91.4624 479.755Z" fill="#7CCF92" stroke="#002346" stroke-miterlimit="10"/>
<path d="M215.578 506.591C215.578 506.591 243.989 484.469 273.896 505.931C273.896 505.931 287.723 516.116 284.072 526.931C282.615 531.241 278.62 534.223 274.044 534.971C268.07 535.955 257.914 535.65 247.001 526.675C247.001 526.675 222.733 508.5 215.578 506.581V506.591Z" fill="#7CCF92" stroke="#002346" stroke-miterlimit="10"/>
<path d="M185.661 554.641C185.661 554.641 189.716 486.269 256.655 508.076" stroke="#002346" stroke-linecap="round" stroke-linejoin="round"/>
<path d="M203.916 624.992H141.042L136.987 552.664H207.971L203.916 624.992Z" fill="white" stroke="#002346" stroke-miterlimit="10"/>
<path d="M139.015 581.89C143.128 579.961 149.299 577.776 156.758 577.924C164.04 578.072 168.636 580.374 173.498 581.89C180.495 584.074 191.015 585.551 205.944 581.89" stroke="#002346" stroke-linecap="round" stroke-linejoin="round"/>
<path d="M139.015 590.816C143.128 588.887 149.299 586.702 156.758 586.85C164.04 586.997 168.636 589.3 173.498 590.816C180.495 593 191.015 594.476 205.944 590.816" stroke="#002346" stroke-linecap="round" stroke-linejoin="round"/>
<path d="M119.746 483.308C119.746 483.308 147.124 494.211 154.229 552.664" stroke="#002346" stroke-linecap="round" stroke-linejoin="round"/>
<path d="M582.837 546.769C584.067 548.629 585.238 550.214 586.251 551.454C592.205 558.795 596.525 567.385 598.622 576.616C602.656 594.319 601.377 612.829 601.377 612.829C591.349 612.829 588.161 617.011 587.373 620.928C587.088 622.355 587.127 623.752 587.265 624.893C587.452 626.517 588.83 627.737 590.463 627.826C601.82 628.367 608.502 627.147 611.917 626.114C617.064 624.559 617.133 586.407 617.133 586.407C617.133 586.407 617.418 580.759 617.536 578.594C617.566 578.22 617.999 578.013 618.304 578.22C630.831 586.712 639.206 595.923 642.109 599.318C643.083 600.469 643.851 601.788 644.146 603.274C645.701 610.703 636.844 615.092 633.587 616.44C632.376 616.942 631.215 617.562 630.172 618.369C626.954 620.849 627.062 622.955 627.85 624.382C628.529 625.622 629.729 626.34 629.729 626.34L630.074 626.615C632.268 628.367 634.699 629.833 637.336 630.798C640.889 632.107 643.33 631.979 646.626 630.355C651.704 627.855 655.385 623.634 655.385 623.634C682.389 638.483 698.597 615.535 698.597 615.535C726.073 612.563 735.983 597.753 739.349 585.02C742.39 573.516 740.471 561.324 734.97 550.765C726.467 534.41 713.713 529.686 707.05 528.328C706.007 528.112 705.417 529.499 706.283 530.109C711.371 533.701 715.514 538.011 718.722 542.007C725.443 550.381 729.646 560.615 729.862 571.341C730.433 599.692 702.651 600.676 702.651 600.676C701.697 584.301 693.155 574.106 688.352 569.609C682.645 564.266 677.508 558.332 672.931 551.975C667.263 544.093 662.087 535.65 657.697 527.905C645.691 506.669 640.21 482.373 641.952 458.057C642.71 447.616 643.772 438.425 644.284 434.263C644.609 431.655 644.55 428.998 643.93 426.449C641.922 418.242 635.624 413.056 630.979 410.252C628.046 408.471 624.632 407.664 621.217 407.851L608.581 408.549C604.014 408.805 599.802 411.088 597.106 414.788L588.357 426.695C587.157 428.339 585.562 429.677 583.742 430.602L580.179 432.383C577.385 433.771 575.849 436.821 576.381 439.901C577.64 447.045 581.134 458.913 590.572 458.913H602.824C603.434 458.913 603.857 459.533 603.621 460.094C600.344 467.917 587.491 486.752 583.604 492.4C582.817 493.522 582.049 494.644 581.36 495.815C568.38 517.74 576.174 536.604 582.837 546.769Z" fill="white" stroke="#002346" stroke-miterlimit="10"/>
<path d="M641.519 467.573C641.519 467.573 624.927 477.611 598.297 469.61L594.223 476.538C594.223 476.538 620.38 487.677 641.932 475.318L641.529 467.573H641.519Z" fill="#404040" stroke="#002346" stroke-miterlimit="10"/>
<path d="M618.52 615.073C617.772 620.633 626.767 623.988 627.849 624.372C627.062 622.955 626.954 620.849 630.172 618.36C631.215 617.553 632.376 616.933 633.587 616.431C636.844 615.083 645.701 610.694 644.146 603.264C643.851 601.778 643.083 600.46 642.109 599.308C639.245 595.943 631.048 586.919 618.756 578.525C618.491 578.348 618.156 578.653 618.323 578.929C621.167 583.544 631.274 600.096 632.426 604.731C633.429 608.745 626.226 610.517 622.466 611.166C620.459 611.511 618.786 613.056 618.52 615.073Z" fill="white" stroke="#002346" stroke-miterlimit="10"/>
<path d="M579.235 620.938H587.373C588.161 617.021 591.339 612.839 601.377 612.839C601.377 612.839 602.657 594.329 598.622 576.626C596.526 567.395 592.205 558.804 586.251 551.463C585.238 550.223 584.067 548.639 582.837 546.779H582.758C582.758 546.779 589.223 562.888 589.223 573.683L591.92 610.133C591.92 610.133 579.619 611.254 577.404 618.576C577.05 619.757 577.995 620.928 579.225 620.928L579.235 620.938Z" fill="white" stroke="#002346" stroke-miterlimit="10"/>
<path d="M654.036 418.41C654.036 418.41 659.439 422.464 656.733 431.911C656.733 431.911 654.036 444.064 655.385 453.511C655.385 453.511 656.733 462.958 647.285 458.914C647.285 458.914 630.152 448.374 631.038 422.081C631.057 421.49 630.802 420.929 630.319 420.595C627.958 418.892 621.167 413.254 625.674 407.615C625.674 407.615 632.425 400.864 644.579 410.311L654.027 418.41H654.036Z" fill="#E5E5E5" stroke="#002346" stroke-miterlimit="10"/>
<path d="M583.742 430.602C585.563 429.687 587.157 428.349 588.358 426.695L597.106 414.788C599.803 411.088 604.015 408.805 608.581 408.55C608.581 408.55 585.002 404.987 583.732 430.602H583.742Z" fill="#E5E5E5" stroke="#002346" stroke-miterlimit="10"/>
<path d="M612.173 430.563C613.662 430.563 614.869 429.052 614.869 427.188C614.869 425.324 613.662 423.812 612.173 423.812C610.684 423.812 609.477 425.324 609.477 427.188C609.477 429.052 610.684 430.563 612.173 430.563Z" fill="#002346" stroke="#002346" stroke-miterlimit="10"/>
<path d="M597.293 423.748C597.687 421.926 596.827 420.194 595.372 419.878C593.916 419.563 592.417 420.785 592.022 422.606C591.627 424.428 592.487 426.161 593.943 426.476C595.398 426.791 596.898 425.57 597.293 423.748Z" fill="#002346" stroke="#002346" stroke-miterlimit="10"/>
<path d="M587.363 437.313H580.573C579.589 437.313 578.939 438.357 579.382 439.242L581.645 443.769C582.049 444.576 583.131 444.753 583.771 444.113L588.298 439.587C589.134 438.75 588.544 437.313 587.353 437.313H587.363Z" fill="#002346" stroke="#002346" stroke-miterlimit="10"/>
<path d="M652.541 98.8875C658.237 98.8875 662.854 94.2702 662.854 88.5746C662.854 82.879 658.237 78.2617 652.541 78.2617C646.845 78.2617 642.228 82.879 642.228 88.5746C642.228 94.2702 646.845 98.8875 652.541 98.8875Z" fill="#8C8C8C" stroke="#002346" stroke-linecap="round" stroke-linejoin="round"/>
<path d="M648.073 88.2299L651.508 91.6642L657.009 85.4844" stroke="#002346" stroke-linecap="round" stroke-linejoin="round"/>
<path d="M652.541 121.925C658.237 121.925 662.854 117.307 662.854 111.612C662.854 105.916 658.237 101.299 652.541 101.299C646.845 101.299 642.228 105.916 642.228 111.612C642.228 117.307 646.845 121.925 652.541 121.925Z" fill="#8C8C8C" stroke="#002346" stroke-linecap="round" stroke-linejoin="round"/>
<path d="M648.073 111.267L651.508 114.701L657.009 108.512" stroke="#002346" stroke-linecap="round" stroke-linejoin="round"/>
<path d="M652.541 145.296C658.237 145.296 662.854 140.678 662.854 134.983C662.854 129.287 658.237 124.67 652.541 124.67C646.845 124.67 642.228 129.287 642.228 134.983C642.228 140.678 646.845 145.296 652.541 145.296Z" fill="#8C8C8C" stroke="#002346" stroke-linecap="round" stroke-linejoin="round"/>
<path d="M648.073 134.638L651.508 138.082L657.009 131.893" stroke="#002346" stroke-linecap="round" stroke-linejoin="round"/>
<path d="M733.248 79.6396H676.347C674.591 79.6396 673.168 81.0627 673.168 82.8181V94.3414C673.168 96.0968 674.591 97.5199 676.347 97.5199H733.248C735.003 97.5199 736.426 96.0968 736.426 94.3414V82.8181C736.426 81.0627 735.003 79.6396 733.248 79.6396Z" fill="#404040" stroke="#002346" stroke-miterlimit="10"/>
<path d="M683.826 88.5742H725.769" stroke="#002346" stroke-linecap="round" stroke-linejoin="round"/>
<path d="M733.248 102.666H676.347C674.591 102.666 673.168 104.089 673.168 105.845V117.368C673.168 119.123 674.591 120.546 676.347 120.546H733.248C735.003 120.546 736.426 119.123 736.426 117.368V105.845C736.426 104.089 735.003 102.666 733.248 102.666Z" fill="#404040" stroke="#002346" stroke-miterlimit="10"/>
<path d="M683.826 111.611H725.769" stroke="#002346" stroke-linecap="round" stroke-linejoin="round"/>
<path d="M732.559 126.047H675.658C673.903 126.047 672.479 127.47 672.479 129.225V140.749C672.479 142.504 673.903 143.927 675.658 143.927H732.559C734.315 143.927 735.738 142.504 735.738 140.749V129.225C735.738 127.47 734.315 126.047 732.559 126.047Z" fill="#404040" stroke="#002346" stroke-miterlimit="10"/>
<path d="M683.137 134.982H725.079" stroke="#002346" stroke-linecap="round" stroke-linejoin="round"/>
<path d="M688.205 184.972C728.153 184.972 760.537 152.59 760.537 112.644C760.537 72.6987 728.153 40.3164 688.205 40.3164C648.257 40.3164 615.873 72.6987 615.873 112.644C615.873 152.59 648.257 184.972 688.205 184.972Z" stroke="#002346" stroke-linecap="round" stroke-linejoin="round"/>
<path d="M159.74 145.611C169.252 145.611 176.962 137.901 176.962 128.39C176.962 118.879 169.252 111.169 159.74 111.169C150.229 111.169 142.519 118.879 142.519 128.39C142.519 137.901 150.229 145.611 159.74 145.611Z" fill="#8C8C8C" stroke="#002346" stroke-linecap="round" stroke-linejoin="round"/>
<path d="M152.852 128.389L156.788 133.309L166.629 123.469" stroke="#002346" stroke-linecap="round" stroke-linejoin="round"/>
</svg>
